<svg xmlns="http://www.w3.org/2000/svg" width="640" height="640" viewBox="0 0 640 640"><defs><g id="t" fill="none" stroke="#000" stroke-width="1.8" stroke-linecap="round" stroke-linejoin="round"><path d="M74.4 36.2 L75.5 38.9 L75.6 41.9 L74.9 44.8 L73.3 47.3 L70.9 49.1 L68.2 50.2 L65.2 50.4 L62.3 49.6 L59.8 48.0 L58.0 45.7 L56.9 42.9 L56.7 39.9 L57.5 37.0 L59.1 34.5 L61.4 32.7 L64.2 31.6 L67.2 31.4 L70.1 32.2 L72.6 33.8 Z M85.7 29.7 L85.8 31.4 L84.6 33.8 L82.1 36.7 L78.5 39.8 L74.1 43.1 L69.2 46.1 L64.1 48.9 L59.1 51.1 L54.6 52.6 L50.8 53.3 L48.2 53.1 L46.7 52.1 L46.6 50.4 L47.8 48.0 L50.3 45.1 L53.8 42.0 L58.2 38.8 L63.2 35.7 L68.3 32.9 L73.3 30.7 L77.8 29.3 L81.5 28.6 L84.2 28.7 Z M15.5 116.9 L25.5 108.9 L35.6 125.0 L45.6 108.9 L55.6 125.0 L63.6 116.9 M44.2 209.8 L43.1 210.6 L41.8 210.4 L41.0 209.4 L41.2 208.0 L42.2 207.2 L43.6 207.4 L44.4 208.5 Z M41.6 313.8 L45.9 302.9 L61.1 311.0 L61.8 293.7 L77.0 301.8 L79.7 291.8 M51.5 406.7 L50.9 408.3 L49.2 409.0 L47.6 408.3 L47.0 406.7 L47.6 405.1 L49.2 404.4 L50.9 405.1 Z M40.7 493.2 L49.6 486.1 L58.5 500.4 L67.5 486.1 L76.4 500.4 L83.5 493.2 M50.0 601.7 L50.2 603.1 L49.3 604.1 L48.0 604.3 L46.9 603.5 L46.8 602.1 L47.6 601.1 L48.9 600.9 Z M110.5 47.9 L119.1 40.9 L127.8 54.8 L136.5 40.9 L145.2 54.8 L152.2 47.9 M138.9 139.7 L137.5 140.7 L135.9 140.5 L134.9 139.2 L135.1 137.5 L136.4 136.5 L138.1 136.7 L139.1 138.0 Z M132.6 216.6 L132.4 218.0 L131.3 218.8 L129.9 218.6 L129.1 217.5 L129.2 216.2 L130.3 215.3 L131.7 215.5 Z M155.0 296.1 L158.7 300.8 L156.3 307.1 L151.1 311.8 L149.4 314.7 L148.3 325.6 L144.6 336.3 L137.1 344.9 L130.9 349.0 L121.3 343.4 L121.7 336.0 L125.3 325.2 L132.8 316.7 L141.7 310.3 L143.4 307.4 L144.8 300.5 L149.1 295.2 L155.0 296.1 Z M143.4 307.4 L151.1 311.8 M141.7 310.3 L149.4 314.7 M138.5 378.3 L144.3 388.2 L155.7 388.3 L145.8 394.0 L145.8 405.5 L140.0 395.6 L128.6 395.6 L138.4 389.8 Z M100.6 502.4 L109.2 495.5 L117.8 509.2 L126.4 495.5 L135.0 509.2 L141.9 502.4 M150.5 614.1 L149.2 617.1 L147.0 619.5 L144.2 621.1 L141.0 621.8 L137.8 621.5 L134.8 620.2 L132.4 618.0 L130.8 615.2 L130.1 612.0 L130.4 608.8 L131.8 605.8 L133.9 603.4 L136.8 601.8 L139.9 601.1 L143.2 601.4 L146.1 602.7 L148.6 604.9 L150.2 607.7 L150.9 610.9 Z M164.2 617.8 L162.9 619.2 L160.2 620.1 L156.0 620.5 L150.9 620.2 L145.0 619.3 L138.8 617.8 L132.7 616.0 L127.1 613.8 L122.5 611.5 L119.1 609.1 L117.1 607.0 L116.8 605.1 L118.0 603.7 L120.8 602.8 L124.9 602.4 L130.1 602.7 L136.0 603.6 L142.2 605.1 L148.3 606.9 L153.8 609.1 L158.5 611.4 L161.9 613.8 L163.8 615.9 Z M236.2 28.8 L236.3 41.4 L247.1 47.7 L234.6 47.8 L228.2 58.6 L228.2 46.0 L217.3 39.7 L229.9 39.7 Z M241.5 102.8 L241.5 115.0 L252.0 121.1 L239.8 121.2 L233.7 131.7 L233.7 119.5 L223.1 113.4 L235.3 113.3 Z M230.3 223.4 L229.7 226.9 L228.1 230.1 L225.5 232.7 L222.3 234.3 L218.7 234.9 L215.2 234.3 L211.9 232.7 L209.4 230.1 L207.7 226.9 L207.2 223.4 L207.7 219.8 L209.4 216.6 L211.9 214.0 L215.2 212.4 L218.7 211.8 L222.3 212.4 L225.5 214.0 L228.1 216.6 L229.7 219.8 Z M246.0 223.4 L245.1 225.3 L242.4 227.0 L238.0 228.6 L232.4 229.7 L225.8 230.5 L218.7 230.7 L211.7 230.5 L205.1 229.7 L199.4 228.6 L195.1 227.0 L192.3 225.3 L191.4 223.4 L192.3 221.4 L195.1 219.7 L199.4 218.2 L205.1 217.0 L211.7 216.2 L218.7 216.0 L225.8 216.2 L232.4 217.0 L238.0 218.2 L242.4 219.7 L245.1 221.4 Z M215.2 300.0 L220.6 300.6 L223.1 306.2 L222.7 312.5 L223.5 315.4 L229.7 323.0 L234.2 332.1 L234.8 342.3 L233.5 348.8 L223.9 351.4 L219.4 346.4 L214.9 337.3 L214.3 327.1 L215.8 317.4 L215.0 314.5 L211.5 309.3 L210.9 303.2 L215.2 300.0 Z M215.0 314.5 L222.7 312.5 M215.8 317.4 L223.5 315.4 M225.0 407.6 L222.0 411.4 L217.9 414.0 L213.2 415.3 L208.4 415.0 L203.9 413.3 L200.1 410.2 L197.5 406.2 L196.2 401.5 L196.5 396.7 L198.2 392.2 L201.3 388.4 L205.3 385.8 L210.0 384.5 L214.8 384.8 L219.4 386.5 L223.1 389.5 L225.8 393.6 L227.0 398.3 L226.8 403.1 Z M213.2 394.1 L211.8 395.2 L210.0 394.9 L208.9 393.5 L209.2 391.8 L210.6 390.7 L212.3 390.9 L213.4 392.3 Z M219.9 398.0 L218.5 399.0 L216.7 398.8 L215.6 397.4 L215.9 395.6 L217.3 394.6 L219.0 394.8 L220.1 396.2 Z M213.2 401.9 L211.7 403.0 L210.0 402.7 L208.9 401.3 L209.1 399.6 L210.5 398.5 L212.3 398.7 L213.4 400.1 Z M223.2 495.7 L223.6 498.9 L222.9 502.0 L221.3 504.8 L218.9 507.0 L216.0 508.3 L212.8 508.6 L209.6 507.9 L206.9 506.3 L204.7 504.0 L203.4 501.0 L203.1 497.8 L203.7 494.7 L205.3 491.9 L207.7 489.8 L210.7 488.4 L213.9 488.1 L217.0 488.8 L219.8 490.4 L221.9 492.8 Z M236.8 492.1 L236.4 493.9 L234.5 496.1 L231.1 498.4 L226.5 500.7 L221.0 502.8 L215.0 504.7 L208.9 506.1 L203.1 507.0 L197.9 507.3 L193.9 507.0 L191.1 506.1 L189.9 504.6 L190.2 502.8 L192.2 500.6 L195.5 498.3 L200.1 496.0 L205.6 493.9 L211.6 492.1 L217.8 490.6 L223.6 489.8 L228.7 489.5 L232.8 489.8 L235.5 490.7 Z M222.6 578.1 L234.0 573.1 L239.4 590.7 L252.9 578.1 L258.3 595.7 L267.8 590.2 M320.0 35.4 L326.8 26.1 L339.3 37.7 L344.3 21.4 L356.7 33.0 L361.9 24.1 M301.0 140.0 L301.0 150.4 L309.9 155.6 L299.6 155.6 L294.4 164.5 L294.4 154.2 L285.5 149.0 L295.8 149.0 Z M310.8 204.2 L315.2 207.5 L314.6 213.8 L311.0 219.2 L310.2 222.2 L311.8 232.3 L311.1 242.8 L306.4 252.2 L301.8 257.4 L291.9 254.8 L290.5 248.0 L291.2 237.5 L295.8 228.0 L302.2 220.1 L303.0 217.1 L302.6 210.6 L305.2 204.9 L310.8 204.2 Z M303.0 217.1 L311.0 219.2 M302.2 220.1 L310.2 222.2 M328.7 306.2 L331.8 317.6 L343.2 320.7 L331.8 323.8 L328.7 335.2 L325.6 323.8 L314.2 320.7 L325.6 317.6 Z M330.5 410.7 L339.5 419.7 L351.8 416.4 L342.8 425.4 L346.1 437.7 L337.0 428.8 L324.8 432.0 L333.7 423.0 Z M322.3 486.0 L319.4 496.9 L327.4 505.0 L316.4 502.1 L308.4 510.1 L311.3 499.1 L303.3 491.1 L314.2 493.9 Z M321.6 616.4 L320.8 621.3 L318.6 625.7 L315.1 629.2 L310.7 631.4 L305.9 632.2 L301.0 631.4 L296.6 629.2 L293.1 625.7 L290.9 621.3 L290.1 616.4 L290.9 611.6 L293.1 607.2 L296.6 603.7 L301.0 601.5 L305.9 600.7 L310.7 601.5 L315.1 603.7 L318.6 607.2 L320.8 611.6 Z M304.3 610.5 L303.6 612.2 L301.9 612.9 L300.3 612.2 L299.6 610.5 L300.3 608.9 L301.9 608.2 L303.6 608.9 Z M312.1 610.5 L311.5 612.2 L309.8 612.9 L308.1 612.2 L307.4 610.5 L308.1 608.9 L309.8 608.2 L311.5 608.9 Z M308.2 617.4 L307.5 619.1 L305.9 619.8 L304.2 619.1 L303.5 617.4 L304.2 615.8 L305.9 615.1 L307.5 615.8 Z M408.9 15.2 L417.2 23.4 L428.4 20.4 L420.2 28.7 L423.2 39.9 L414.9 31.7 L403.7 34.7 L411.9 26.4 Z M428.8 130.6 L433.8 139.1 L443.7 139.2 L435.2 144.2 L435.1 154.1 L430.1 145.5 L420.2 145.5 L428.8 140.5 Z M401.8 193.3 L405.9 196.4 L405.3 202.1 L402.0 207.2 L401.3 209.9 L402.7 219.2 L402.1 228.9 L397.8 237.7 L393.5 242.4 L384.3 240.0 L383.0 233.7 L383.7 224.0 L388.0 215.3 L393.9 208.0 L394.6 205.2 L394.3 199.2 L396.7 193.9 L401.8 193.3 Z M394.6 205.2 L402.0 207.2 M393.9 208.0 L401.3 209.9 M396.2 337.1 L394.8 338.2 L393.0 337.9 L392.0 336.5 L392.2 334.8 L393.6 333.7 L395.3 334.0 L396.4 335.4 Z M424.3 396.1 L422.5 400.2 L419.6 403.4 L415.7 405.7 L411.4 406.6 L407.0 406.1 L403.0 404.3 L399.7 401.4 L397.5 397.5 L396.6 393.2 L397.1 388.9 L398.9 384.8 L401.8 381.5 L405.6 379.3 L410.0 378.4 L414.3 378.9 L418.4 380.7 L421.6 383.6 L423.8 387.4 L424.8 391.8 Z M410.7 387.0 L409.7 388.3 L408.1 388.5 L406.8 387.5 L406.6 385.9 L407.6 384.7 L409.2 384.4 L410.5 385.4 Z M417.5 388.9 L416.5 390.1 L414.9 390.3 L413.6 389.4 L413.4 387.8 L414.4 386.5 L416.0 386.3 L417.3 387.2 Z M412.5 393.9 L411.5 395.2 L409.9 395.4 L408.6 394.4 L408.4 392.8 L409.4 391.5 L411.0 391.3 L412.3 392.3 Z M421.1 508.8 L421.5 512.2 L420.8 515.6 L419.0 518.6 L416.5 520.9 L413.3 522.3 L409.9 522.7 L406.5 522.0 L403.5 520.2 L401.2 517.7 L399.8 514.5 L399.4 511.1 L400.1 507.7 L401.9 504.7 L404.4 502.4 L407.6 501.0 L411.0 500.6 L414.4 501.3 L417.4 503.0 L419.7 505.6 Z M435.7 504.9 L435.3 506.9 L433.2 509.2 L429.6 511.7 L424.6 514.1 L418.7 516.4 L412.3 518.4 L405.7 520.0 L399.4 520.9 L393.9 521.2 L389.5 520.9 L386.5 519.9 L385.2 518.4 L385.6 516.4 L387.7 514.1 L391.3 511.6 L396.3 509.1 L402.2 506.8 L408.6 504.8 L415.2 503.3 L421.5 502.4 L427.0 502.1 L431.4 502.4 L434.4 503.3 Z M415.8 596.8 L417.2 600.4 L417.4 604.3 L416.4 608.0 L414.3 611.2 L411.3 613.7 L407.7 615.1 L403.8 615.3 L400.1 614.3 L396.8 612.2 L394.4 609.2 L393.0 605.5 L392.8 601.7 L393.8 597.9 L395.9 594.7 L398.9 592.3 L402.5 590.9 L406.4 590.7 L410.1 591.7 L413.4 593.8 Z M430.4 588.4 L430.6 590.6 L429.0 593.7 L425.8 597.5 L421.2 601.6 L415.5 605.8 L409.0 609.8 L402.4 613.3 L395.9 616.2 L390.0 618.1 L385.2 619.0 L381.7 618.9 L379.8 617.6 L379.6 615.3 L381.2 612.2 L384.4 608.5 L389.0 604.4 L394.8 600.2 L401.2 596.2 L407.9 592.6 L414.4 589.8 L420.2 587.8 L425.1 586.9 L428.5 587.1 Z M531.9 35.7 L536.4 39.1 L535.8 45.6 L532.1 51.1 L531.3 54.2 L532.9 64.5 L532.2 75.3 L527.4 85.0 L522.7 90.3 L512.5 87.5 L511.1 80.6 L511.8 69.8 L516.5 60.1 L523.1 52.0 L523.9 49.0 L523.5 42.3 L526.2 36.4 L531.9 35.7 Z M523.9 49.0 L532.1 51.1 M523.1 52.0 L531.3 54.2 M482.7 97.6 L488.5 96.7 L492.6 101.8 L494.0 108.5 L495.6 111.3 L504.3 117.6 L511.5 125.9 L515.1 136.3 L515.5 143.6 L506.1 149.0 L500.1 145.0 L492.8 136.7 L489.3 126.2 L488.1 115.7 L486.5 112.8 L481.4 108.3 L479.1 102.1 L482.7 97.6 Z M486.5 112.8 L494.0 108.5 M488.1 115.7 L495.6 111.3 M494.4 226.5 L501.3 217.0 L514.0 228.8 L519.0 212.3 L531.7 224.1 L536.9 215.1 M498.3 342.0 L502.6 331.0 L517.9 339.2 L518.5 321.9 L533.8 330.0 L536.5 319.9 M476.4 384.6 L486.4 380.2 L491.2 395.6 L503.0 384.6 L507.7 400.1 L516.2 395.2 M493.8 512.8 L492.4 513.9 L490.7 513.6 L489.7 512.2 L489.9 510.5 L491.3 509.5 L493.0 509.7 L494.0 511.1 Z M533.4 585.5 L533.7 588.6 L533.1 591.7 L531.5 594.4 L529.1 596.5 L526.3 597.8 L523.1 598.2 L520.0 597.5 L517.3 595.9 L515.2 593.6 L513.9 590.7 L513.6 587.6 L514.2 584.5 L515.8 581.8 L518.2 579.6 L521.0 578.4 L524.2 578.0 L527.3 578.7 L530.0 580.3 L532.1 582.6 Z M546.7 581.9 L546.3 583.7 L544.4 585.9 L541.1 588.1 L536.6 590.4 L531.2 592.5 L525.3 594.3 L519.3 595.7 L513.6 596.5 L508.6 596.8 L504.6 596.5 L501.9 595.7 L500.6 594.3 L501.0 592.4 L502.9 590.3 L506.2 588.1 L510.7 585.8 L516.1 583.7 L522.0 581.9 L528.0 580.5 L533.7 579.7 L538.8 579.4 L542.8 579.7 L545.5 580.5 Z M582.2 31.2 L582.4 32.7 L581.5 34.0 L579.9 34.2 L578.6 33.2 L578.4 31.7 L579.4 30.4 L581.0 30.2 Z M605.3 144.1 L604.7 147.8 L603.0 151.2 L600.4 153.8 L597.1 155.5 L593.3 156.1 L589.6 155.5 L586.3 153.8 L583.6 151.2 L581.9 147.8 L581.4 144.1 L581.9 140.4 L583.6 137.1 L586.3 134.4 L589.6 132.7 L593.3 132.1 L597.1 132.7 L600.4 134.4 L603.0 137.1 L604.7 140.4 Z M621.7 144.1 L620.7 146.1 L617.9 148.0 L613.4 149.5 L607.5 150.7 L600.7 151.5 L593.3 151.8 L586.0 151.5 L579.2 150.7 L573.3 149.5 L568.8 148.0 L566.0 146.1 L565.0 144.1 L566.0 142.2 L568.8 140.3 L573.3 138.7 L579.2 137.5 L586.0 136.8 L593.3 136.5 L600.7 136.8 L607.5 137.5 L613.4 138.7 L617.9 140.3 L620.7 142.2 Z M614.9 242.6 L613.6 243.6 L611.9 243.3 L610.9 242.0 L611.2 240.4 L612.5 239.4 L614.1 239.6 L615.1 240.9 Z M597.4 315.6 L594.9 325.2 L601.9 332.3 L592.2 329.8 L585.1 336.8 L587.7 327.2 L580.6 320.1 L590.3 322.6 Z M585.9 417.4 L592.0 427.9 L604.2 428.0 L593.7 434.1 L593.6 446.3 L587.5 435.8 L575.3 435.7 L585.9 429.6 Z M569.1 493.6 L574.8 503.4 L586.1 503.4 L576.3 509.1 L576.3 520.4 L570.6 510.6 L559.3 510.6 L569.1 504.9 Z M594.6 562.0 L600.1 562.6 L602.6 568.2 L602.2 574.6 L603.0 577.6 L609.3 585.3 L613.9 594.6 L614.6 604.9 L613.2 611.6 L603.4 614.2 L598.9 609.1 L594.3 599.9 L593.6 589.5 L595.2 579.7 L594.4 576.7 L590.9 571.4 L590.3 565.2 L594.6 562.0 Z M594.4 576.7 L602.2 574.6 M595.2 579.7 L603.0 577.6"/></g></defs><use href="#t" x="-640" y="-640"/><use href="#t" x="-640" y="0"/><use href="#t" x="-640" y="640"/><use href="#t" x="0" y="-640"/><use href="#t" x="0" y="0"/><use href="#t" x="0" y="640"/><use href="#t" x="640" y="-640"/><use href="#t" x="640" y="0"/><use href="#t" x="640" y="640"/></svg>