<svg xmlns="http://www.w3.org/2000/svg" viewBox="-143 -228 240 269"><g fill="none" stroke="#000" stroke-linecap="round" stroke-linejoin="round"><path d="M47.8 16.0 L40.6 17.3 L33.1 18.3 L25.2 19.0 L17.0 19.3 L8.8 19.2 L0.5 18.8 L-7.8 18.0 L-15.9 16.8 L-23.7 15.3 L-31.2 13.4 L-38.3 11.3 L-44.9 8.8 L-50.8 6.1 L-56.2 3.1 L-60.8 -0.1 L-64.6 -3.4 L-67.7 -6.9 L-69.9 -10.5 L-71.3 -14.2 L-71.9 -17.9 L-71.5 -21.6 L-70.4 -25.2 L-68.4 -28.8 L-65.6 -32.2 L-62.1 -35.5 L-57.9 -38.6 L-53.0 -41.5 L-47.6 -44.2 L-41.6 -46.5 L-35.2 -48.6 L-28.5 -50.4 L-21.5 -51.9 L-14.3 -53.1 L-7.0 -53.9 L0.3 -54.5 L7.5 -54.7 L14.6 -54.5 L21.4 -54.0 L27.9 -53.1 L34.0 -51.9 L39.7 -50.5 L44.8 -48.8 L49.4 -46.9 L53.3 -44.8 L56.6 -42.6 L59.1 -40.3 L61.0 -37.9 L62.0 -35.5 L62.4 -33.0 L62.0 -30.5 L60.9 -28.1 L59.1 -25.8 L56.6 -23.5 L53.4 -21.4 L49.7 -19.5 L45.4 -17.8 L40.6 -16.3 L35.4 -15.0 L29.8 -13.9 L23.9 -13.1 L17.8 -12.6 L11.6 -12.4 L5.3 -12.4 L-1.0 -12.7 L-7.3 -13.3 L-13.3 -14.2 L-19.2 -15.3 L-24.7 -16.7 L-30.0 -18.3 L-34.8 -20.2 L-39.1 -22.2 L-42.9 -24.4 L-46.2 -26.7 L-48.9 -29.2 L-51.0 -31.7 L-52.4 -34.3 L-53.3 -37.0 L-53.4 -39.6 L-53.0 -42.3 L-51.9 -44.9 L-50.3 -47.4 L-48.0 -49.8 L-45.2 -52.1 L-41.9 -54.2 L-38.2 -56.2 L-34.1 -58.0 L-29.6 -59.6 L-24.8 -61.0 L-19.7 -62.2 L-14.5 -63.1 L-9.2 -63.8 L-3.9 -64.2 L1.5 -64.4 L6.7 -64.4 L11.8 -64.2 L16.7 -63.7 L21.4 -63.0 L25.7 -62.2 L29.7 -61.1 L33.2 -59.9 L36.3 -58.6 L39.0 -57.1 L41.2 -55.6 L42.8 -54.0 L43.9 -52.3 L44.5 -50.6 L44.6 -48.9 L44.1 -47.2 L43.1 -45.6 L41.6 -44.0 L39.7 -42.6 L37.3 -41.2 L34.5 -40.0 L31.3 -38.9 L27.8 -37.9 L24.0 -37.2 L20.0 -36.6 L15.8 -36.2 L11.5 -36.0 L7.2 -35.9 L2.8 -36.1 L-1.6 -36.5 L-5.9 -37.1 L-10.0 -37.8 L-14.0 -38.7 L-17.7 -39.8 L-21.2 -41.1 L-24.3 -42.5 L-27.2 -44.0 L-29.6 -45.6 L-31.7 -47.3 L-33.3 -49.0 L-34.6 -50.9 L-35.4 -52.7 L-35.8 -54.6 L-35.7 -56.4 L-35.2 -58.3 L-34.4 -60.1 L-33.1 -61.8 L-31.5 -63.5 L-29.5 -65.0 L-27.2 -66.5 L-24.6 -67.8 L-21.8 -69.0 L-18.8 -70.1 L-15.6 -71.0 L-12.3 -71.8 L-8.9 -72.4 L-5.4 -72.8 L-7.0 -71.0 L-7.8 -68.6 L-7.3 -70.9 L-6.8 -73.2 L-6.3 -75.6 L-5.9 -77.9 L-5.5 -80.2 L-5.2 -82.6 L-4.9 -84.9 L-4.6 -87.2 L-4.5 -89.6 L-4.3 -91.9 L-4.2 -94.2 L-4.2 -96.5 L-4.2 -98.9 L-4.3 -101.2 L-4.5 -103.5 L-4.7 -105.8 L-4.9 -108.1 L-5.2 -110.4 L-5.6 -112.6 L-6.0 -114.9 L-6.5 -117.1 L-7.1 -119.4 L-7.7 -121.6 L-8.4 -123.8 L-9.1 -126.0 L-9.9 -128.2 L-10.8 -130.3 L-11.7 -132.5 L-12.7 -134.6 L-13.8 -136.7 L-14.9 -138.7 L-16.1 -140.8 L-17.3 -142.8 L-18.7 -144.8 L-20.0 -146.8 L-21.5 -148.7 L-23.0 -150.6 L-24.5 -152.5 L-26.2 -154.4 L-27.9 -156.2 L-29.6 -158.0 L-31.4 -159.7 L-33.3 -161.5 L-35.2 -163.1 L-37.2 -164.8 L-39.3 -166.4 L-41.4 -167.9 L-43.6 -169.4 L-45.8 -170.9 L-48.1 -172.3 L-50.4 -173.6 L-52.7 -174.9 L-55.2 -176.1 L-57.6 -177.3 L-60.1 -178.4 L-62.7 -179.5 L-65.3 -180.5 L-67.9 -181.4 L-70.6 -182.3 M46.2 16.1 L39.1 17.4 L31.8 18.4 L24.2 19.0 L16.3 19.3 L8.4 19.2 L0.5 18.8 L-7.3 18.0 L-15.0 16.9 L-22.3 15.4 L-29.4 13.7 L-35.9 11.6 L-42.0 9.3 L-47.5 6.8 L-52.4 4.0 L-56.5 1.1 L-60.0 -2.0 L-62.7 -5.3 L-64.6 -8.6 L-65.8 -11.9 L-66.1 -15.3 L-65.7 -18.6 L-64.4 -21.9 L-62.5 -25.1 L-59.8 -28.1 L-56.5 -31.1 L-52.5 -33.8 L-48.0 -36.3 L-43.0 -38.6 L-37.5 -40.6 L-31.7 -42.4 L-25.6 -43.9 L-19.3 -45.1 L-12.8 -46.1 L-6.3 -46.7 L0.1 -47.1 L6.5 -47.1 L12.7 -46.9 L18.7 -46.4 L24.4 -45.6 L29.7 -44.6 L34.7 -43.3 L39.2 -41.9 L43.2 -40.2 L46.7 -38.4 L49.5 -36.5 L51.8 -34.5 L53.4 -32.4 L54.4 -30.3 L54.7 -28.1 L54.4 -25.9 L53.4 -23.8 L51.8 -21.8 L49.6 -19.9 L46.9 -18.0 L43.6 -16.4 L39.8 -14.9 L35.6 -13.5 L31.1 -12.4 L26.2 -11.5 L21.0 -10.8 L15.7 -10.4 L10.2 -10.2 L4.7 -10.3 L-0.8 -10.6 L-6.3 -11.1 L-11.6 -11.9 L-16.7 -12.9 L-21.6 -14.1 L-26.1 -15.5 L-30.3 -17.1 L-34.1 -18.9 L-37.5 -20.8 L-40.4 -22.9 L-42.7 -25.1 L-44.5 -27.3 L-45.8 -29.6 L-46.5 -32.0 L-46.7 -34.3 L-46.3 -36.6 L-45.4 -38.9 L-43.9 -41.1 L-42.0 -43.3 L-39.5 -45.3 L-36.7 -47.2 L-33.4 -48.9 L-29.8 -50.5 L-25.8 -51.9 L-21.6 -53.2 L-17.3 -54.2 L-12.7 -55.0 L-8.1 -55.7 L-3.4 -56.1 L1.3 -56.3 L5.8 -56.3 L10.3 -56.1 L14.6 -55.7 L18.6 -55.1 L22.4 -54.4 L25.9 -53.5 L29.0 -52.5 L31.7 -51.3 L34.0 -50.1 L35.9 -48.7 L37.4 -47.3 L38.3 -45.9 L38.8 -44.4 L38.9 -43.0 L38.5 -41.5 L37.6 -40.1 L36.3 -38.8 L34.6 -37.5 L32.5 -36.3 L30.0 -35.3 L27.3 -34.4 L24.2 -33.6 L20.9 -32.9 L17.4 -32.4 L13.8 -32.1 L10.0 -31.9 L6.2 -31.9 L2.3 -32.1 L-1.5 -32.5 L-5.2 -33.0 L-8.8 -33.7 L-12.3 -34.5 L-15.5 -35.5 L-18.6 -36.6 L-21.3 -37.8 L-23.8 -39.2 L-25.9 -40.6 L-27.7 -42.1 L-29.2 -43.7 L-30.2 -45.3 L-30.9 -46.9 L-31.3 -48.6 L-31.2 -50.2 L-30.8 -51.9 L-30.0 -53.5 L-28.9 -55.0 L-27.5 -56.5 L-25.7 -57.9 L-23.7 -59.1 L-21.4 -60.3 L-18.9 -61.4 L-16.3 -62.4 L-13.5 -63.2 L-10.6 -63.9 L-7.6 -64.4 L-4.6 -64.9 L-3.3 -63.8 L-2.8 -65.2 L-2.2 -67.6 L-1.7 -69.9 L-1.3 -72.3 L-0.9 -74.8 L-0.5 -77.2 L-0.2 -79.6 L0.0 -82.0 L0.3 -84.4 L0.4 -86.9 L0.5 -89.3 L0.6 -91.8 L0.6 -94.2 L0.5 -96.6 L0.4 -99.1 L0.3 -101.5 L0.0 -104.0 L-0.3 -106.4 L-0.6 -108.9 L-1.1 -111.3 L-1.5 -113.8 L-2.1 -116.2 L-2.7 -118.6 L-3.4 -121.0 L-4.2 -123.5 L-5.0 -125.9 L-6.0 -128.2 L-6.9 -130.6 L-8.0 -133.0 L-9.1 -135.3 L-10.3 -137.6 L-11.6 -139.9 L-12.9 -142.2 L-14.3 -144.4 L-15.8 -146.6 L-17.3 -148.8 L-19.0 -150.9 L-20.6 -153.0 L-22.4 -155.1 L-24.2 -157.1 L-26.0 -159.0 L-27.9 -161.0 L-29.9 -162.8 L-31.9 -164.7 L-34.0 -166.4 L-36.2 -168.2 L-38.4 -169.8 L-40.6 -171.5 L-42.9 -173.0 L-45.2 -174.5 L-47.6 -176.0 L-50.1 -177.3 L-52.5 -178.7 L-55.1 -179.9 L-57.6 -181.1 L-60.2 -182.3 L-62.9 -183.3 L-65.6 -184.3 L-68.3 -185.3 L-71.1 -186.1 M45.5 18.3 L38.4 19.7 L31.2 20.8 L23.6 21.5 L15.9 21.9 L8.2 21.9 L0.4 21.6 L-7.3 21.0 L-14.8 20.0 L-22.0 18.7 L-28.8 17.1 L-35.2 15.3 L-41.1 13.1 L-46.4 10.8 L-51.1 8.2 L-55.1 5.4 L-58.4 2.5 L-61.0 -0.5 L-62.8 -3.5 L-63.9 -6.6 L-64.1 -9.8 L-63.7 -12.9 L-62.4 -15.9 L-60.5 -18.8 L-57.8 -21.7 L-54.5 -24.3 L-50.6 -26.8 L-46.2 -29.1 L-41.3 -31.1 L-36.0 -33.0 L-30.3 -34.5 L-24.4 -35.8 L-18.3 -36.8 L-12.1 -37.5 L-5.8 -38.0 L0.4 -38.1 L6.6 -38.0 L12.5 -37.7 L18.3 -37.1 L23.8 -36.3 L28.9 -35.4 L33.7 -34.2 L38.1 -32.8 L41.9 -31.2 L45.3 -29.5 L48.0 -27.6 L50.2 -25.7 L51.7 -23.7 L52.7 -21.6 L53.0 -19.6 L52.6 -17.5 L51.7 -15.5 L50.1 -13.5 L48.0 -11.6 L45.3 -9.9 L42.1 -8.3 L38.5 -6.8 L34.4 -5.5 L29.9 -4.5 L25.2 -3.6 L20.1 -3.0 L14.9 -2.6 L9.6 -2.4 L4.2 -2.5 L-1.2 -2.8 L-6.5 -3.3 L-11.7 -4.1 L-16.8 -5.1 L-21.5 -6.3 L-26.0 -7.7 L-30.1 -9.3 L-33.8 -11.1 L-37.1 -13.0 L-39.9 -15.0 L-42.2 -17.2 L-44.0 -19.4 L-45.3 -21.7 L-46.0 -24.0 L-46.1 -26.3 L-45.7 -28.7 L-44.8 -30.9 L-43.3 -33.1 L-41.4 -35.3 L-38.9 -37.3 L-36.1 -39.2 L-32.8 -40.9 L-29.2 -42.5 L-25.3 -43.9 L-21.1 -45.1 L-16.7 -46.2 L-12.2 -47.0 L-7.5 -47.6 L-2.9 -48.0 L1.8 -48.3 L6.4 -48.3 L10.8 -48.1 L15.1 -47.7 L19.2 -47.1 L23.0 -46.4 L26.4 -45.5 L29.5 -44.5 L32.3 -43.3 L34.6 -42.1 L36.5 -40.7 L37.9 -39.3 L38.9 -37.9 L39.4 -36.4 L39.4 -34.9 L38.9 -33.5 L38.0 -32.1 L36.7 -30.7 L34.9 -29.4 L32.8 -28.3 L30.3 -27.2 L27.4 -26.2 L24.3 -25.4 L20.9 -24.8 L17.3 -24.3 L13.5 -24.0 L9.7 -23.8 L5.7 -23.9 L1.8 -24.1 L-2.2 -24.5 L-6.0 -25.0 L-9.8 -25.7 L-13.3 -26.6 L-16.7 -27.7 L-19.8 -28.8 L-22.7 -30.1 L-25.3 -31.5 L-27.5 -33.0 L-29.3 -34.6 L-30.8 -36.3 L-31.9 -38.0 L-32.6 -39.7 L-33.0 -41.5 L-32.9 -43.2 L-32.4 -45.0 L-31.6 -46.6 L-30.3 -48.3 L-28.8 -49.8 L-26.9 -51.3 L-24.7 -52.7 L-22.3 -53.9 L-19.6 -55.1 L-16.8 -56.1 L-13.7 -57.0 L-10.6 -57.7 L-7.4 -58.3 L-4.1 -58.8 L1.6 -59.4 L3.6 -65.0 L4.1 -67.5 L4.6 -69.9 L5.0 -72.4 L5.4 -74.8 L5.7 -77.3 L6.0 -79.8 L6.2 -82.2 L6.4 -84.7 L6.6 -87.2 L6.6 -89.7 L6.7 -92.2 L6.6 -94.8 L6.6 -97.3 L6.4 -99.8 L6.2 -102.3 L5.9 -104.9 L5.6 -107.4 L5.2 -109.9 L4.7 -112.5 L4.1 -115.0 L3.5 -117.6 L2.8 -120.1 L2.1 -122.7 L1.2 -125.2 L0.3 -127.7 L-0.7 -130.2 L-1.8 -132.8 L-2.9 -135.2 L-4.1 -137.7 L-5.5 -140.2 L-6.8 -142.6 L-8.3 -145.0 L-9.8 -147.4 L-11.4 -149.7 L-13.1 -152.0 L-14.8 -154.2 L-16.6 -156.4 L-18.5 -158.6 L-20.4 -160.7 L-22.4 -162.7 L-24.4 -164.7 L-26.5 -166.7 L-28.7 -168.6 L-30.9 -170.4 L-33.2 -172.2 L-35.5 -173.9 L-37.8 -175.6 L-40.2 -177.2 L-42.7 -178.7 L-45.2 -180.2 L-47.7 -181.6 L-50.3 -182.9 L-53.0 -184.2 L-55.6 -185.4 L-58.3 -186.6 L-61.1 -187.6 L-63.9 -188.6 L-66.7 -189.6 L-69.5 -190.4 M46.0 21.3 L38.9 22.9 L31.6 24.2 L23.9 25.1 L16.1 25.6 L8.1 25.9 L0.2 25.7 L-7.7 25.2 L-15.4 24.4 L-22.8 23.3 L-29.9 21.8 L-36.5 20.0 L-42.6 18.0 L-48.2 15.7 L-53.1 13.2 L-57.3 10.5 L-60.9 7.7 L-63.6 4.7 L-65.6 1.6 L-66.8 -1.5 L-67.1 -4.6 L-66.7 -7.7 L-65.5 -10.8 L-63.5 -13.7 L-60.8 -16.6 L-57.4 -19.3 L-53.4 -21.8 L-48.7 -24.1 L-43.6 -26.2 L-38.0 -28.0 L-32.0 -29.5 L-25.7 -30.8 L-19.2 -31.8 L-12.5 -32.5 L-5.7 -32.9 L1.0 -33.0 L7.7 -32.7 L14.2 -32.2 L20.4 -31.6 L26.4 -30.8 L32.1 -29.7 L37.3 -28.4 L42.0 -26.9 L46.2 -25.1 L49.9 -23.3 L52.9 -21.2 L55.2 -19.1 L56.9 -16.9 L57.9 -14.6 L58.2 -12.4 L57.9 -10.1 L56.8 -7.9 L55.1 -5.7 L52.7 -3.7 L49.7 -1.7 L46.2 0.0 L42.1 1.6 L37.6 3.0 L32.6 4.2 L27.3 5.2 L21.8 5.9 L16.0 6.3 L10.0 6.5 L4.0 6.4 L-2.0 6.1 L-7.9 5.5 L-13.7 4.6 L-19.3 3.5 L-24.6 2.1 L-29.6 0.5 L-34.2 -1.3 L-38.4 -3.3 L-42.0 -5.4 L-45.2 -7.7 L-47.7 -10.1 L-49.7 -12.6 L-51.1 -15.2 L-51.9 -17.8 L-52.0 -20.4 L-51.5 -23.0 L-50.5 -25.6 L-48.8 -28.1 L-46.6 -30.5 L-43.8 -32.8 L-40.5 -34.9 L-36.8 -36.9 L-32.7 -38.6 L-28.2 -40.2 L-23.4 -41.6 L-18.4 -42.8 L-13.2 -43.7 L-7.9 -44.4 L-2.6 -44.9 L2.7 -45.1 L8.0 -45.1 L13.1 -44.9 L18.0 -44.4 L22.7 -43.7 L27.0 -42.9 L31.0 -41.8 L34.6 -40.6 L37.7 -39.3 L40.4 -37.8 L42.5 -36.2 L44.2 -34.6 L45.3 -32.9 L45.8 -31.2 L45.8 -29.5 L45.3 -27.8 L44.2 -26.1 L42.6 -24.5 L40.5 -23.0 L38.0 -21.6 L35.0 -20.4 L31.7 -19.3 L28.0 -18.3 L24.0 -17.6 L19.7 -17.0 L15.3 -16.6 L10.7 -16.4 L6.0 -16.5 L1.3 -16.7 L-3.3 -17.2 L-7.9 -17.8 L-12.3 -18.7 L-16.6 -19.7 L-20.6 -20.9 L-24.3 -22.3 L-27.7 -23.8 L-30.7 -25.5 L-33.4 -27.3 L-35.6 -29.2 L-37.3 -31.2 L-38.6 -33.2 L-39.5 -35.3 L-39.8 -37.4 L-39.7 -39.5 L-39.1 -41.6 L-38.1 -43.6 L-36.6 -45.6 L-34.7 -47.4 L-32.4 -49.2 L-29.7 -50.9 L-26.7 -52.4 L-23.4 -53.7 L-19.9 -55.0 L-16.2 -56.0 L-12.3 -56.9 L-8.3 -57.6 L-4.3 -58.1 L5.0 -60.3 L7.5 -68.3 L8.0 -70.7 L8.5 -73.1 L8.9 -75.6 L9.2 -78.0 L9.6 -80.5 L9.8 -83.0 L10.0 -85.4 L10.2 -87.9 L10.3 -90.4 L10.4 -92.9 L10.4 -95.4 L10.4 -97.9 L10.3 -100.4 L10.1 -102.9 L9.9 -105.4 L9.6 -107.9 L9.2 -110.4 L8.8 -112.9 L8.3 -115.5 L7.7 -118.0 L7.1 -120.5 L6.4 -123.0 L5.6 -125.5 L4.7 -128.0 L3.8 -130.5 L2.8 -133.0 L1.7 -135.5 L0.5 -137.9 L-0.7 -140.4 L-2.0 -142.8 L-3.4 -145.2 L-4.9 -147.6 L-6.4 -149.9 L-8.0 -152.2 L-9.7 -154.5 L-11.5 -156.7 L-13.3 -158.9 L-15.2 -161.0 L-17.1 -163.1 L-19.1 -165.1 L-21.2 -167.1 L-23.3 -169.0 L-25.5 -170.9 L-27.7 -172.8 L-30.0 -174.5 L-32.3 -176.2 L-34.7 -177.9 L-37.2 -179.5 L-39.7 -181.0 L-42.2 -182.5 L-44.8 -183.9 L-47.4 -185.2 L-50.1 -186.5 L-52.8 -187.7 L-55.5 -188.8 L-58.3 -189.9 L-61.1 -190.9 L-64.0 -191.8 L-66.8 -192.6 M47.5 23.3 L40.3 25.1 L32.8 26.5 L24.8 27.6 L16.7 28.3 L8.4 28.6 L0.0 28.6 L-8.3 28.2 L-16.4 27.5 L-24.4 26.4 L-31.9 24.9 L-39.1 23.1 L-45.7 21.1 L-51.8 18.7 L-57.2 16.1 L-61.9 13.3 L-65.8 10.3 L-69.0 7.2 L-71.3 3.9 L-72.7 0.6 L-73.3 -2.8 L-73.0 -6.2 L-71.8 -9.5 L-69.8 -12.7 L-67.0 -15.9 L-63.4 -18.8 L-59.1 -21.6 L-54.1 -24.2 L-48.5 -26.6 L-42.3 -28.6 L-35.7 -30.4 L-28.6 -31.9 L-21.3 -33.1 L-13.8 -33.9 L-6.1 -34.4 L1.6 -34.5 L9.2 -34.3 L16.7 -33.8 L23.9 -33.1 L30.8 -32.1 L37.3 -30.9 L43.3 -29.3 L48.8 -27.6 L53.6 -25.6 L57.8 -23.4 L61.2 -21.0 L64.0 -18.6 L65.9 -16.0 L67.0 -13.4 L67.4 -10.7 L66.9 -8.1 L65.7 -5.5 L63.7 -3.0 L60.9 -0.6 L57.5 1.6 L53.3 3.7 L48.6 5.6 L43.3 7.2 L37.6 8.6 L31.4 9.7 L25.0 10.5 L18.2 11.0 L11.3 11.3 L4.3 11.2 L-2.7 10.8 L-9.6 10.1 L-16.3 9.1 L-22.9 7.8 L-29.0 6.2 L-34.9 4.4 L-40.2 2.3 L-45.0 -0.0 L-49.3 -2.5 L-53.0 -5.2 L-56.0 -8.0 L-58.3 -10.9 L-59.9 -13.9 L-60.8 -17.0 L-60.9 -20.0 L-60.4 -23.0 L-59.1 -26.0 L-57.1 -28.9 L-54.5 -31.7 L-51.2 -34.4 L-47.4 -36.8 L-43.0 -39.1 L-38.2 -41.2 L-32.9 -43.1 L-27.3 -44.7 L-21.4 -46.0 L-15.3 -47.1 L-9.0 -47.9 L-2.7 -48.4 L3.5 -48.7 L9.7 -48.6 L15.8 -48.3 L21.6 -47.7 L27.0 -46.9 L32.2 -45.9 L36.9 -44.6 L41.1 -43.2 L44.8 -41.6 L48.0 -39.8 L50.5 -37.9 L52.4 -36.0 L53.7 -33.9 L54.4 -31.9 L54.4 -29.8 L53.7 -27.8 L52.4 -25.8 L50.5 -23.9 L48.1 -22.1 L45.0 -20.4 L41.5 -18.9 L37.5 -17.5 L33.1 -16.4 L28.3 -15.5 L23.3 -14.8 L18.0 -14.3 L12.5 -14.0 L6.9 -14.1 L1.4 -14.3 L-4.2 -14.8 L-9.7 -15.6 L-15.0 -16.6 L-20.0 -17.8 L-24.8 -19.2 L-29.3 -20.9 L-33.3 -22.7 L-37.0 -24.7 L-40.1 -26.8 L-42.8 -29.1 L-44.9 -31.4 L-46.5 -33.8 L-47.5 -36.3 L-47.9 -38.8 L-47.7 -41.3 L-47.0 -43.7 L-45.8 -46.1 L-44.0 -48.4 L-41.7 -50.7 L-38.9 -52.8 L-35.7 -54.7 L-32.1 -56.5 L-28.1 -58.2 L-23.9 -59.6 L-19.4 -60.9 L-14.7 -61.9 L-9.9 -62.7 L-5.0 -63.3 L4.8 -65.9 L6.8 -73.0 L7.2 -75.4 L7.7 -77.8 L8.1 -80.1 L8.5 -82.5 L8.8 -84.9 L9.0 -87.3 L9.3 -89.7 L9.4 -92.1 L9.6 -94.5 L9.6 -96.9 L9.6 -99.4 L9.6 -101.8 L9.5 -104.2 L9.3 -106.6 L9.1 -108.9 L8.8 -111.3 L8.5 -113.7 L8.1 -116.1 L7.6 -118.5 L7.1 -120.9 L6.5 -123.2 L5.8 -125.6 L5.1 -127.9 L4.2 -130.3 L3.4 -132.6 L2.4 -134.9 L1.4 -137.2 L0.3 -139.5 L-0.8 -141.7 L-2.1 -144.0 L-3.4 -146.2 L-4.7 -148.4 L-6.2 -150.5 L-7.7 -152.7 L-9.2 -154.8 L-10.9 -156.9 L-12.6 -158.9 L-14.4 -160.9 L-16.2 -162.9 L-18.1 -164.8 L-20.1 -166.7 L-22.1 -168.5 L-24.2 -170.3 L-26.3 -172.1 L-28.5 -173.8 L-30.8 -175.4 L-33.1 -177.0 L-35.5 -178.5 L-37.9 -180.0 L-40.4 -181.4 L-42.9 -182.8 L-45.5 -184.1 L-48.1 -185.4 L-50.7 -186.6 L-53.4 -187.7 L-56.2 -188.7 L-59.0 -189.7 L-61.8 -190.6 L-64.7 -191.5 M49.0 23.2 L41.9 25.0 L34.0 26.5 L25.9 27.6 L17.4 28.3 L8.7 28.7 L-0.0 28.6 L-8.7 28.2 L-17.4 27.4 L-25.7 26.2 L-33.8 24.7 L-41.4 22.8 L-48.6 20.5 L-55.1 18.0 L-61.0 15.2 L-66.1 12.2 L-70.5 8.9 L-74.0 5.5 L-76.6 1.9 L-78.3 -1.7 L-79.1 -5.4 L-78.9 -9.2 L-77.8 -12.8 L-75.8 -16.5 L-72.8 -20.0 L-69.1 -23.3 L-64.5 -26.5 L-59.1 -29.4 L-53.1 -32.1 L-46.4 -34.5 L-39.2 -36.6 L-31.6 -38.4 L-23.5 -39.8 L-15.3 -40.9 L-6.8 -41.6 L1.7 -41.9 L10.2 -41.9 L18.6 -41.4 L26.7 -40.7 L34.3 -39.6 L41.6 -38.2 L48.3 -36.5 L54.3 -34.5 L59.7 -32.3 L64.4 -29.8 L68.3 -27.2 L71.3 -24.4 L73.4 -21.5 L74.7 -18.6 L75.1 -15.6 L74.6 -12.7 L73.2 -9.8 L71.0 -7.0 L67.9 -4.3 L64.0 -1.8 L59.4 0.6 L54.2 2.6 L48.3 4.5 L41.9 6.0 L35.1 7.3 L27.9 8.2 L20.4 8.8 L12.7 9.1 L4.9 9.0 L-2.9 8.6 L-10.6 7.8 L-18.1 6.7 L-25.3 5.3 L-32.2 3.6 L-38.7 1.5 L-44.6 -0.8 L-50.0 -3.3 L-54.7 -6.0 L-58.8 -9.0 L-62.1 -12.1 L-64.7 -15.3 L-66.5 -18.6 L-67.5 -22.0 L-67.7 -25.3 L-67.1 -28.7 L-65.6 -32.0 L-63.5 -35.2 L-60.5 -38.2 L-56.9 -41.2 L-52.7 -43.9 L-47.8 -46.4 L-42.5 -48.7 L-36.6 -50.8 L-30.4 -52.5 L-23.9 -54.0 L-17.1 -55.2 L-10.2 -56.0 L-3.2 -56.6 L3.7 -56.8 L10.6 -56.8 L17.3 -56.4 L23.7 -55.8 L29.8 -54.8 L35.4 -53.7 L40.7 -52.3 L45.3 -50.6 L49.4 -48.8 L52.9 -46.9 L55.8 -44.8 L57.9 -42.6 L59.3 -40.3 L60.1 -38.0 L60.1 -35.7 L59.3 -33.5 L57.9 -31.2 L55.9 -29.1 L53.1 -27.1 L49.8 -25.2 L45.9 -23.5 L41.5 -22.0 L36.7 -20.8 L31.4 -19.7 L25.9 -18.9 L20.0 -18.3 L14.0 -18.1 L7.9 -18.1 L1.8 -18.3 L-4.3 -18.8 L-10.3 -19.7 L-16.2 -20.7 L-21.7 -22.0 L-27.0 -23.6 L-31.9 -25.4 L-36.4 -27.3 L-40.3 -29.5 L-43.8 -31.8 L-46.7 -34.2 L-49.1 -36.8 L-50.8 -39.4 L-51.9 -42.1 L-52.4 -44.8 L-52.2 -47.5 L-51.5 -50.1 L-50.1 -52.7 L-48.2 -55.3 L-45.7 -57.7 L-42.7 -59.9 L-39.2 -62.1 L-35.3 -64.0 L-31.0 -65.8 L-26.4 -67.3 L-21.5 -68.7 L-16.4 -69.8 L-11.2 -70.7 L-5.9 -71.3 L1.2 -73.0 L1.7 -76.4 L2.2 -78.7 L2.7 -81.0 L3.1 -83.4 L3.5 -85.7 L3.8 -88.0 L4.1 -90.3 L4.3 -92.6 L4.5 -94.9 L4.7 -97.2 L4.7 -99.5 L4.8 -101.8 L4.8 -104.1 L4.7 -106.4 L4.6 -108.6 L4.4 -110.9 L4.1 -113.1 L3.8 -115.4 L3.5 -117.6 L3.1 -119.8 L2.6 -122.0 L2.0 -124.2 L1.4 -126.3 L0.8 -128.5 L0.1 -130.6 L-0.7 -132.7 L-1.5 -134.8 L-2.4 -136.9 L-3.4 -139.0 L-4.4 -141.0 L-5.5 -143.0 L-6.7 -145.0 L-7.9 -147.0 L-9.2 -148.9 L-10.5 -150.9 L-11.9 -152.8 L-13.4 -154.7 L-14.9 -156.5 L-16.6 -158.4 L-18.2 -160.2 L-20.0 -162.0 L-21.8 -163.7 L-23.6 -165.4 L-25.6 -167.1 L-27.6 -168.7 L-29.6 -170.4 L-31.7 -171.9 L-33.9 -173.4 L-36.1 -174.9 L-38.4 -176.4 L-40.8 -177.7 L-43.2 -179.1 L-45.7 -180.3 L-48.2 -181.6 L-50.7 -182.7 L-53.3 -183.8 L-56.0 -184.9 L-58.7 -185.8 L-61.4 -186.7 L-64.2 -187.6 M49.8 21.0 L42.6 22.7 L34.7 24.0 L26.4 25.0 L17.8 25.7 L9.0 25.9 L0.1 25.7 L-8.8 25.2 L-17.6 24.2 L-26.1 22.9 L-34.4 21.2 L-42.2 19.1 L-49.5 16.7 L-56.2 14.0 L-62.2 11.0 L-67.5 7.8 L-72.0 4.3 L-75.7 0.7 L-78.4 -3.1 L-80.2 -7.0 L-81.0 -10.9 L-80.9 -14.9 L-79.8 -18.8 L-77.8 -22.7 L-74.8 -26.5 L-71.0 -30.1 L-66.3 -33.5 L-60.9 -36.7 L-54.7 -39.6 L-47.9 -42.2 L-40.6 -44.6 L-32.7 -46.5 L-24.5 -48.2 L-16.0 -49.4 L-7.3 -50.3 L1.4 -50.8 L10.1 -50.9 L18.7 -50.7 L27.1 -50.0 L35.0 -48.9 L42.4 -47.4 L49.3 -45.6 L55.5 -43.6 L61.0 -41.3 L65.8 -38.7 L69.8 -36.0 L72.9 -33.2 L75.1 -30.2 L76.4 -27.2 L76.8 -24.2 L76.3 -21.1 L74.9 -18.2 L72.6 -15.3 L69.5 -12.5 L65.6 -9.9 L60.9 -7.6 L55.5 -5.4 L49.6 -3.5 L43.1 -1.9 L36.1 -0.6 L28.7 0.4 L21.1 1.0 L13.3 1.3 L5.4 1.2 L-2.5 0.8 L-10.3 0.0 L-17.9 -1.1 L-25.3 -2.5 L-32.3 -4.2 L-38.8 -6.3 L-44.9 -8.6 L-50.3 -11.1 L-55.1 -13.9 L-59.2 -16.9 L-62.6 -20.0 L-65.2 -23.2 L-67.1 -26.5 L-68.1 -29.9 L-68.3 -33.3 L-67.7 -36.7 L-66.3 -40.0 L-64.1 -43.2 L-61.2 -46.3 L-57.5 -49.2 L-53.3 -51.9 L-48.4 -54.5 L-43.0 -56.7 L-37.2 -58.8 L-30.9 -60.5 L-24.4 -62.0 L-17.6 -63.2 L-10.7 -64.0 L-3.7 -64.6 L3.2 -64.8 L10.1 -64.8 L16.7 -64.4 L23.2 -63.8 L29.2 -62.8 L34.9 -61.7 L40.1 -60.3 L44.8 -58.6 L48.9 -56.8 L52.4 -54.9 L55.2 -52.8 L57.3 -50.6 L58.8 -48.4 L59.5 -46.1 L59.5 -43.8 L58.9 -41.5 L57.5 -39.3 L55.5 -37.2 L52.8 -35.2 L49.5 -33.3 L45.7 -31.6 L41.4 -30.2 L36.6 -28.9 L31.5 -27.8 L26.0 -27.0 L20.3 -26.4 L14.4 -26.1 L8.4 -26.1 L2.4 -26.4 L-3.6 -26.9 L-9.5 -27.6 L-15.2 -28.7 L-20.7 -29.9 L-25.8 -31.4 L-30.6 -33.1 L-35.0 -35.0 L-38.9 -37.1 L-42.3 -39.3 L-45.1 -41.7 L-47.4 -44.2 L-49.1 -46.7 L-50.2 -49.3 L-50.7 -51.9 L-50.6 -54.5 L-49.9 -57.0 L-48.6 -59.6 L-46.7 -62.0 L-44.3 -64.3 L-41.5 -66.5 L-38.1 -68.5 L-34.4 -70.4 L-30.3 -72.1 L-25.9 -73.6 L-21.2 -74.9 L-16.4 -75.9 L-11.4 -76.8 L-6.4 -77.4 L-3.8 -77.5 L-4.6 -76.5 L-4.1 -78.8 L-3.6 -81.1 L-3.2 -83.4 L-2.8 -85.6 L-2.4 -87.9 L-2.1 -90.1 L-1.9 -92.4 L-1.6 -94.6 L-1.5 -96.9 L-1.4 -99.1 L-1.3 -101.3 L-1.3 -103.5 L-1.3 -105.7 L-1.4 -107.9 L-1.6 -110.1 L-1.8 -112.3 L-2.0 -114.4 L-2.3 -116.5 L-2.7 -118.6 L-3.1 -120.7 L-3.6 -122.8 L-4.1 -124.8 L-4.7 -126.9 L-5.4 -128.9 L-6.1 -130.9 L-6.8 -132.8 L-7.6 -134.8 L-8.5 -136.7 L-9.4 -138.6 L-10.4 -140.5 L-11.4 -142.3 L-12.5 -144.2 L-13.7 -146.0 L-14.9 -147.8 L-16.2 -149.6 L-17.5 -151.4 L-19.0 -153.1 L-20.4 -154.9 L-22.0 -156.6 L-23.6 -158.3 L-25.3 -159.9 L-27.0 -161.6 L-28.8 -163.2 L-30.7 -164.8 L-32.6 -166.3 L-34.6 -167.8 L-36.7 -169.3 L-38.8 -170.8 L-41.0 -172.2 L-43.2 -173.5 L-45.5 -174.8 L-47.9 -176.1 L-50.3 -177.3 L-52.8 -178.4 L-55.3 -179.5 L-57.8 -180.6 L-60.4 -181.5 L-63.1 -182.4 L-65.8 -183.3 M49.2 18.0 L42.1 19.5 L34.3 20.7 L26.1 21.5 L17.6 21.9 L9.0 22.0 L0.3 21.7 L-8.4 21.0 L-17.0 19.9 L-25.3 18.4 L-33.3 16.6 L-40.9 14.4 L-47.9 11.9 L-54.4 9.1 L-60.2 6.0 L-65.3 2.7 L-69.6 -0.8 L-73.1 -4.5 L-75.6 -8.3 L-77.3 -12.2 L-78.0 -16.1 L-77.8 -20.1 L-76.7 -24.0 L-74.7 -27.8 L-71.8 -31.5 L-68.1 -35.1 L-63.6 -38.5 L-58.4 -41.7 L-52.4 -44.6 L-45.9 -47.2 L-38.9 -49.5 L-31.4 -51.5 L-23.6 -53.2 L-15.6 -54.5 L-7.4 -55.4 L0.8 -56.0 L9.0 -56.2 L17.1 -56.1 L24.9 -55.5 L32.3 -54.4 L39.3 -53.1 L45.7 -51.4 L51.6 -49.5 L56.7 -47.3 L61.2 -45.0 L64.9 -42.4 L67.8 -39.8 L69.9 -37.0 L71.2 -34.2 L71.6 -31.4 L71.1 -28.5 L69.8 -25.7 L67.7 -23.1 L64.8 -20.5 L61.2 -18.1 L56.9 -15.9 L51.9 -13.9 L46.4 -12.1 L40.4 -10.6 L33.9 -9.4 L27.1 -8.5 L20.1 -7.9 L12.9 -7.6 L5.6 -7.7 L-1.7 -8.0 L-8.9 -8.7 L-16.0 -9.7 L-22.7 -11.0 L-29.2 -12.6 L-35.2 -14.5 L-40.8 -16.6 L-45.8 -18.9 L-50.2 -21.5 L-54.0 -24.2 L-57.1 -27.0 L-59.5 -30.0 L-61.2 -33.0 L-62.2 -36.1 L-62.4 -39.2 L-61.8 -42.3 L-60.6 -45.3 L-58.6 -48.2 L-56.0 -51.0 L-52.7 -53.7 L-48.8 -56.2 L-44.4 -58.5 L-39.5 -60.6 L-34.3 -62.5 L-28.6 -64.1 L-22.7 -65.4 L-16.6 -66.5 L-10.3 -67.3 L-4.0 -67.8 L2.3 -68.0 L8.5 -67.9 L14.5 -67.6 L20.3 -67.1 L25.7 -66.2 L30.9 -65.2 L35.5 -63.9 L39.8 -62.5 L43.5 -60.9 L46.6 -59.1 L49.1 -57.3 L51.1 -55.3 L52.4 -53.3 L53.1 -51.3 L53.1 -49.2 L52.5 -47.2 L51.3 -45.2 L49.6 -43.4 L47.2 -41.6 L44.3 -39.9 L40.9 -38.4 L37.1 -37.1 L32.9 -36.0 L28.4 -35.0 L23.6 -34.3 L18.5 -33.8 L13.4 -33.6 L8.1 -33.5 L2.8 -33.7 L-2.5 -34.2 L-7.7 -34.8 L-12.7 -35.7 L-17.4 -36.8 L-22.0 -38.1 L-26.2 -39.6 L-30.0 -41.3 L-33.4 -43.1 L-36.4 -45.0 L-38.9 -47.1 L-40.9 -49.2 L-42.4 -51.4 L-43.4 -53.7 L-43.8 -55.9 L-43.7 -58.2 L-43.1 -60.4 L-42.0 -62.6 L-40.5 -64.7 L-38.4 -66.7 L-36.0 -68.6 L-33.2 -70.4 L-30.0 -72.0 L-26.5 -73.4 L-22.7 -74.7 L-18.8 -75.8 L-14.7 -76.8 L-10.5 -77.5 L-6.2 -78.0 L-7.1 -76.6 L-8.6 -73.3 L-8.0 -75.6 L-7.5 -77.8 L-7.1 -80.1 L-6.7 -82.4 L-6.3 -84.7 L-6.0 -86.9 L-5.7 -89.2 L-5.4 -91.4 L-5.3 -93.7 L-5.1 -95.9 L-5.0 -98.2 L-5.0 -100.4 L-5.0 -102.6 L-5.1 -104.8 L-5.2 -107.0 L-5.4 -109.2 L-5.6 -111.4 L-5.9 -113.5 L-6.3 -115.7 L-6.7 -117.8 L-7.1 -119.9 L-7.7 -122.0 L-8.2 -124.0 L-8.9 -126.1 L-9.5 -128.1 L-10.3 -130.1 L-11.1 -132.0 L-11.9 -134.0 L-12.8 -135.9 L-13.8 -137.8 L-14.8 -139.7 L-15.9 -141.6 L-17.1 -143.5 L-18.3 -145.3 L-19.6 -147.1 L-20.9 -148.9 L-22.3 -150.7 L-23.7 -152.4 L-25.3 -154.2 L-26.9 -155.9 L-28.5 -157.6 L-30.2 -159.2 L-32.0 -160.8 L-33.9 -162.4 L-35.8 -164.0 L-37.7 -165.5 L-39.8 -167.0 L-41.9 -168.5 L-44.0 -169.9 L-46.2 -171.2 L-48.5 -172.5 L-50.8 -173.8 L-53.2 -175.0 L-55.6 -176.2 L-58.1 -177.3 L-60.6 -178.3 L-63.2 -179.3 L-65.8 -180.2 L-68.5 -181.1 M-60.2 -198.5 L-80.7 -212.4 L-104.7 -216.4 L-128.1 -213.8 L-96.9 -194.4 L-73.6 -179.4 Z M-73.6 -179.4 L-99.2 -179.2 L-131.3 -170.2 L-95.1 -173.0 Z M-118.7 -208.8 L-121.6 -192.2 M-108.5 -201.8 L-111.2 -190.0 M-94.5 -209.5 L-97.7 -213.8 L-103.0 -212.6 L-99.8 -208.2 Z M-80.7 -212.4 L-96.9 -194.4 M-104.7 -216.4 L-96.9 -194.4 M49.6 13.2 L55.7 13.5 L57.3 23.0 L51.5 25.1 Z M56.7 12.9 L62.8 13.0 L64.1 21.2 L58.3 23.2 Z M63.7 12.6 L69.8 12.5 L70.9 19.5 L65.1 21.3 Z M70.7 12.3 L76.8 12.0 L77.7 17.7 L71.9 19.4 Z M77.8 12.0 L83.8 11.6 L84.5 16.0 L78.7 17.5 Z" stroke-width="0.7"/><path d="M47.8 16.0 L46.2 16.1 L45.5 18.3 L46.0 21.3 L47.5 23.3 L49.0 23.2 L49.8 21.0 L49.2 18.0 Z M25.2 19.0 L24.2 19.0 L23.6 21.5 L23.9 25.1 L24.8 27.6 L25.9 27.6 L26.4 25.0 L26.1 21.5 Z M0.5 18.8 L0.5 18.8 L0.4 21.6 L0.2 25.7 L0.0 28.6 L-0.0 28.6 L0.1 25.7 L0.3 21.7 Z M-23.7 15.3 L-22.3 15.4 L-22.0 18.7 L-22.8 23.3 L-24.4 26.4 L-25.7 26.2 L-26.1 22.9 L-25.3 18.4 Z M-44.9 8.8 L-42.0 9.3 L-41.1 13.1 L-42.6 18.0 L-45.7 21.1 L-48.6 20.5 L-49.5 16.7 L-47.9 11.9 Z M-60.8 -0.1 L-56.5 1.1 L-55.1 5.4 L-57.3 10.5 L-61.9 13.3 L-66.1 12.2 L-67.5 7.8 L-65.3 2.7 Z M-69.9 -10.5 L-64.6 -8.6 L-62.8 -3.5 L-65.6 1.6 L-71.3 3.9 L-76.6 1.9 L-78.4 -3.1 L-75.6 -8.3 Z M-71.5 -21.6 L-65.7 -18.6 L-63.7 -12.9 L-66.7 -7.7 L-73.0 -6.2 L-78.9 -9.2 L-80.9 -14.9 L-77.8 -20.1 Z M-65.6 -32.2 L-59.8 -28.1 L-57.8 -21.7 L-60.8 -16.6 L-67.0 -15.9 L-72.8 -20.0 L-74.8 -26.5 L-71.8 -31.5 Z M-53.0 -41.5 L-48.0 -36.3 L-46.2 -29.1 L-48.7 -24.1 L-54.1 -24.2 L-59.1 -29.4 L-60.9 -36.7 L-58.4 -41.7 Z M-35.2 -48.6 L-31.7 -42.4 L-30.3 -34.5 L-32.0 -29.5 L-35.7 -30.4 L-39.2 -36.6 L-40.6 -44.6 L-38.9 -49.5 Z M-14.3 -53.1 L-12.8 -46.1 L-12.1 -37.5 L-12.5 -32.5 L-13.8 -33.9 L-15.3 -40.9 L-16.0 -49.4 L-15.6 -54.5 Z M7.5 -54.7 L6.5 -47.1 L6.6 -38.0 L7.7 -32.7 L9.2 -34.3 L10.2 -41.9 L10.1 -50.9 L9.0 -56.2 Z M27.9 -53.1 L24.4 -45.6 L23.8 -36.3 L26.4 -30.8 L30.8 -32.1 L34.3 -39.6 L35.0 -48.9 L32.3 -54.4 Z M44.8 -48.8 L39.2 -41.9 L38.1 -32.8 L42.0 -26.9 L48.8 -27.6 L54.3 -34.5 L55.5 -43.6 L51.6 -49.5 Z M56.6 -42.6 L49.5 -36.5 L48.0 -27.6 L52.9 -21.2 L61.2 -21.0 L68.3 -27.2 L69.8 -36.0 L64.9 -42.4 Z M62.0 -35.5 L54.4 -30.3 L52.7 -21.6 L57.9 -14.6 L67.0 -13.4 L74.7 -18.6 L76.4 -27.2 L71.2 -34.2 Z M60.9 -28.1 L53.4 -23.8 L51.7 -15.5 L56.8 -7.9 L65.7 -5.5 L73.2 -9.8 L74.9 -18.2 L69.8 -25.7 Z M53.4 -21.4 L46.9 -18.0 L45.3 -9.9 L49.7 -1.7 L57.5 1.6 L64.0 -1.8 L65.6 -9.9 L61.2 -18.1 Z M40.6 -16.3 L35.6 -13.5 L34.4 -5.5 L37.6 3.0 L43.3 7.2 L48.3 4.5 L49.6 -3.5 L46.4 -12.1 Z M23.9 -13.1 L21.0 -10.8 L20.1 -3.0 L21.8 5.9 L25.0 10.5 L27.9 8.2 L28.7 0.4 L27.1 -8.5 Z M5.3 -12.4 L4.7 -10.3 L4.2 -2.5 L4.0 6.4 L4.3 11.2 L4.9 9.0 L5.4 1.2 L5.6 -7.7 Z M-13.3 -14.2 L-11.6 -11.9 L-11.7 -4.1 L-13.7 4.6 L-16.3 9.1 L-18.1 6.7 L-17.9 -1.1 L-16.0 -9.7 Z M-30.0 -18.3 L-26.1 -15.5 L-26.0 -7.7 L-29.6 0.5 L-34.9 4.4 L-38.7 1.5 L-38.8 -6.3 L-35.2 -14.5 Z M-42.9 -24.4 L-37.5 -20.8 L-37.1 -13.0 L-42.0 -5.4 L-49.3 -2.5 L-54.7 -6.0 L-55.1 -13.9 L-50.2 -21.5 Z M-51.0 -31.7 L-44.5 -27.3 L-44.0 -19.4 L-49.7 -12.6 L-58.3 -10.9 L-64.7 -15.3 L-65.2 -23.2 L-59.5 -30.0 Z M-53.4 -39.6 L-46.7 -34.3 L-46.1 -26.3 L-52.0 -20.4 L-60.9 -20.0 L-67.7 -25.3 L-68.3 -33.3 L-62.4 -39.2 Z M-50.3 -47.4 L-43.9 -41.1 L-43.3 -33.1 L-48.8 -28.1 L-57.1 -28.9 L-63.5 -35.2 L-64.1 -43.2 L-58.6 -48.2 Z M-41.9 -54.2 L-36.7 -47.2 L-36.1 -39.2 L-40.5 -34.9 L-47.4 -36.8 L-52.7 -43.9 L-53.3 -51.9 L-48.8 -56.2 Z M-29.6 -59.6 L-25.8 -51.9 L-25.3 -43.9 L-28.2 -40.2 L-32.9 -43.1 L-36.6 -50.8 L-37.2 -58.8 L-34.3 -62.5 Z M-14.5 -63.1 L-12.7 -55.0 L-12.2 -47.0 L-13.2 -43.7 L-15.3 -47.1 L-17.1 -55.2 L-17.6 -63.2 L-16.6 -66.5 Z M1.5 -64.4 L1.3 -56.3 L1.8 -48.3 L2.7 -45.1 L3.5 -48.7 L3.7 -56.8 L3.2 -64.8 L2.3 -68.0 Z M16.7 -63.7 L14.6 -55.7 L15.1 -47.7 L18.0 -44.4 L21.6 -47.7 L23.7 -55.8 L23.2 -63.8 L20.3 -67.1 Z M29.7 -61.1 L25.9 -53.5 L26.4 -45.5 L31.0 -41.8 L36.9 -44.6 L40.7 -52.3 L40.1 -60.3 L35.5 -63.9 Z M39.0 -57.1 L34.0 -50.1 L34.6 -42.1 L40.4 -37.8 L48.0 -39.8 L52.9 -46.9 L52.4 -54.9 L46.6 -59.1 Z M43.9 -52.3 L38.3 -45.9 L38.9 -37.9 L45.3 -32.9 L53.7 -33.9 L59.3 -40.3 L58.8 -48.4 L52.4 -53.3 Z M44.1 -47.2 L38.5 -41.5 L38.9 -33.5 L45.3 -27.8 L53.7 -27.8 L59.3 -33.5 L58.9 -41.5 L52.5 -47.2 Z M39.7 -42.6 L34.6 -37.5 L34.9 -29.4 L40.5 -23.0 L48.1 -22.1 L53.1 -27.1 L52.8 -35.2 L47.2 -41.6 Z M31.3 -38.9 L27.3 -34.4 L27.4 -26.2 L31.7 -19.3 L37.5 -17.5 L41.5 -22.0 L41.4 -30.2 L37.1 -37.1 Z M20.0 -36.6 L17.4 -32.4 L17.3 -24.3 L19.7 -17.0 L23.3 -14.8 L25.9 -18.9 L26.0 -27.0 L23.6 -34.3 Z M7.2 -35.9 L6.2 -31.9 L5.7 -23.9 L6.0 -16.5 L6.9 -14.1 L7.9 -18.1 L8.4 -26.1 L8.1 -33.5 Z M-5.9 -37.1 L-5.2 -33.0 L-6.0 -25.0 L-7.9 -17.8 L-9.7 -15.6 L-10.3 -19.7 L-9.5 -27.6 L-7.7 -34.8 Z M-17.7 -39.8 L-15.5 -35.5 L-16.7 -27.7 L-20.6 -20.9 L-24.8 -19.2 L-27.0 -23.6 L-25.8 -31.4 L-22.0 -38.1 Z M-27.2 -44.0 L-23.8 -39.2 L-25.3 -31.5 L-30.7 -25.5 L-37.0 -24.7 L-40.3 -29.5 L-38.9 -37.1 L-33.4 -43.1 Z M-33.3 -49.0 L-29.2 -43.7 L-30.8 -36.3 L-37.3 -31.2 L-44.9 -31.4 L-49.1 -36.8 L-47.4 -44.2 L-40.9 -49.2 Z M-35.8 -54.6 L-31.3 -48.6 L-33.0 -41.5 L-39.8 -37.4 L-47.9 -38.8 L-52.4 -44.8 L-50.7 -51.9 L-43.8 -55.9 Z M-34.4 -60.1 L-30.0 -53.5 L-31.6 -46.6 L-38.1 -43.6 L-45.8 -46.1 L-50.1 -52.7 L-48.6 -59.6 L-42.0 -62.6 Z M-29.5 -65.0 L-25.7 -57.9 L-26.9 -51.3 L-32.4 -49.2 L-38.9 -52.8 L-42.7 -59.9 L-41.5 -66.5 L-36.0 -68.6 Z M-21.8 -69.0 L-18.9 -61.4 L-19.6 -55.1 L-23.4 -53.7 L-28.1 -58.2 L-31.0 -65.8 L-30.3 -72.1 L-26.5 -73.4 Z M-12.3 -71.8 L-10.6 -63.9 L-10.6 -57.7 L-12.3 -56.9 L-14.7 -61.9 L-16.4 -69.8 L-16.4 -75.9 L-14.7 -76.8 Z M-7.0 -71.0 L-3.3 -63.8 L1.6 -59.4 L5.0 -60.3 L4.8 -65.9 L1.2 -73.0 L-3.8 -77.5 L-7.1 -76.6 Z M-6.8 -73.2 L-1.7 -69.9 L4.6 -69.9 L8.5 -73.1 L7.7 -77.8 L2.7 -81.0 L-3.6 -81.1 L-7.5 -77.8 Z M-5.5 -80.2 L-0.5 -77.2 L5.7 -77.3 L9.6 -80.5 L8.8 -84.9 L3.8 -88.0 L-2.4 -87.9 L-6.3 -84.7 Z M-4.6 -87.2 L0.3 -84.4 L6.4 -84.7 L10.2 -87.9 L9.4 -92.1 L4.5 -94.9 L-1.6 -94.6 L-5.4 -91.4 Z M-4.2 -94.2 L0.6 -91.8 L6.7 -92.2 L10.4 -95.4 L9.6 -99.4 L4.8 -101.8 L-1.3 -101.3 L-5.0 -98.2 Z M-4.3 -101.2 L0.4 -99.1 L6.4 -99.8 L10.1 -102.9 L9.3 -106.6 L4.6 -108.6 L-1.4 -107.9 L-5.1 -104.8 Z M-4.9 -108.1 L-0.3 -106.4 L5.6 -107.4 L9.2 -110.4 L8.5 -113.7 L3.8 -115.4 L-2.0 -114.4 L-5.6 -111.4 Z M-6.0 -114.9 L-1.5 -113.8 L4.1 -115.0 L7.7 -118.0 L7.1 -120.9 L2.6 -122.0 L-3.1 -120.7 L-6.7 -117.8 Z M-7.7 -121.6 L-3.4 -121.0 L2.1 -122.7 L5.6 -125.5 L5.1 -127.9 L0.8 -128.5 L-4.7 -126.9 L-8.2 -124.0 Z M-9.9 -128.2 L-6.0 -128.2 L-0.7 -130.2 L2.8 -133.0 L2.4 -134.9 L-1.5 -134.8 L-6.8 -132.8 L-10.3 -130.1 Z M-12.7 -134.6 L-9.1 -135.3 L-4.1 -137.7 L-0.7 -140.4 L-0.8 -141.7 L-4.4 -141.0 L-9.4 -138.6 L-12.8 -135.9 Z M-16.1 -140.8 L-12.9 -142.2 L-8.3 -145.0 L-4.9 -147.6 L-4.7 -148.4 L-7.9 -147.0 L-12.5 -144.2 L-15.9 -141.6 Z M-20.0 -146.8 L-17.3 -148.8 L-13.1 -152.0 L-9.7 -154.5 L-9.2 -154.8 L-11.9 -152.8 L-16.2 -149.6 L-19.6 -147.1 Z M-24.5 -152.5 L-22.4 -155.1 L-18.5 -158.6 L-15.2 -161.0 L-14.4 -160.9 L-16.6 -158.4 L-20.4 -154.9 L-23.7 -152.4 Z M-29.6 -158.0 L-27.9 -161.0 L-24.4 -164.7 L-21.2 -167.1 L-20.1 -166.7 L-21.8 -163.7 L-25.3 -159.9 L-28.5 -157.6 Z M-35.2 -163.1 L-34.0 -166.4 L-30.9 -170.4 L-27.7 -172.8 L-26.3 -172.1 L-27.6 -168.7 L-30.7 -164.8 L-33.9 -162.4 Z M-41.4 -167.9 L-40.6 -171.5 L-37.8 -175.6 L-34.7 -177.9 L-33.1 -177.0 L-33.9 -173.4 L-36.7 -169.3 L-39.8 -167.0 Z M-48.1 -172.3 L-47.6 -176.0 L-45.2 -180.2 L-42.2 -182.5 L-40.4 -181.4 L-40.8 -177.7 L-43.2 -173.5 L-46.2 -171.2 Z M-55.2 -176.1 L-55.1 -179.9 L-53.0 -184.2 L-50.1 -186.5 L-48.1 -185.4 L-48.2 -181.6 L-50.3 -177.3 L-53.2 -175.0 Z M-62.7 -179.5 L-62.9 -183.3 L-61.1 -187.6 L-58.3 -189.9 L-56.2 -188.7 L-56.0 -184.9 L-57.8 -180.6 L-60.6 -178.3 Z M-70.6 -182.3 L-71.1 -186.1 L-69.5 -190.4 L-66.8 -192.6 L-64.7 -191.5 L-64.2 -187.6 L-65.8 -183.3 L-68.5 -181.1 Z M47.8 16.0 L24.2 19.0 M46.2 16.1 L25.2 19.0 M46.2 16.1 L23.6 21.5 M45.5 18.3 L24.2 19.0 M45.5 18.3 L23.9 25.1 M46.0 21.3 L23.6 21.5 M46.0 21.3 L24.8 27.6 M47.5 23.3 L23.9 25.1 M47.5 23.3 L25.9 27.6 M49.0 23.2 L24.8 27.6 M49.0 23.2 L26.4 25.0 M49.8 21.0 L25.9 27.6 M49.8 21.0 L26.1 21.5 M49.2 18.0 L26.4 25.0 M49.2 18.0 L25.2 19.0 M47.8 16.0 L26.1 21.5 M25.2 19.0 L0.5 18.8 M24.2 19.0 L0.5 18.8 M24.2 19.0 L0.4 21.6 M23.6 21.5 L0.5 18.8 M23.6 21.5 L0.2 25.7 M23.9 25.1 L0.4 21.6 M23.9 25.1 L0.0 28.6 M24.8 27.6 L0.2 25.7 M24.8 27.6 L-0.0 28.6 M25.9 27.6 L0.0 28.6 M25.9 27.6 L0.1 25.7 M26.4 25.0 L-0.0 28.6 M26.4 25.0 L0.3 21.7 M26.1 21.5 L0.1 25.7 M26.1 21.5 L0.5 18.8 M25.2 19.0 L0.3 21.7 M0.5 18.8 L-22.3 15.4 M0.5 18.8 L-23.7 15.3 M0.5 18.8 L-22.0 18.7 M0.4 21.6 L-22.3 15.4 M0.4 21.6 L-22.8 23.3 M0.2 25.7 L-22.0 18.7 M0.2 25.7 L-24.4 26.4 M0.0 28.6 L-22.8 23.3 M0.0 28.6 L-25.7 26.2 M-0.0 28.6 L-24.4 26.4 M-0.0 28.6 L-26.1 22.9 M0.1 25.7 L-25.7 26.2 M0.1 25.7 L-25.3 18.4 M0.3 21.7 L-26.1 22.9 M0.3 21.7 L-23.7 15.3 M0.5 18.8 L-25.3 18.4 M-23.7 15.3 L-42.0 9.3 M-22.3 15.4 L-44.9 8.8 M-22.3 15.4 L-41.1 13.1 M-22.0 18.7 L-42.0 9.3 M-22.0 18.7 L-42.6 18.0 M-22.8 23.3 L-41.1 13.1 M-22.8 23.3 L-45.7 21.1 M-24.4 26.4 L-42.6 18.0 M-24.4 26.4 L-48.6 20.5 M-25.7 26.2 L-45.7 21.1 M-25.7 26.2 L-49.5 16.7 M-26.1 22.9 L-48.6 20.5 M-26.1 22.9 L-47.9 11.9 M-25.3 18.4 L-49.5 16.7 M-25.3 18.4 L-44.9 8.8 M-23.7 15.3 L-47.9 11.9 M-44.9 8.8 L-56.5 1.1 M-42.0 9.3 L-60.8 -0.1 M-42.0 9.3 L-55.1 5.4 M-41.1 13.1 L-56.5 1.1 M-41.1 13.1 L-57.3 10.5 M-42.6 18.0 L-55.1 5.4 M-42.6 18.0 L-61.9 13.3 M-45.7 21.1 L-57.3 10.5 M-45.7 21.1 L-66.1 12.2 M-48.6 20.5 L-61.9 13.3 M-48.6 20.5 L-67.5 7.8 M-49.5 16.7 L-66.1 12.2 M-49.5 16.7 L-65.3 2.7 M-47.9 11.9 L-67.5 7.8 M-47.9 11.9 L-60.8 -0.1 M-44.9 8.8 L-65.3 2.7 M-60.8 -0.1 L-64.6 -8.6 M-56.5 1.1 L-69.9 -10.5 M-56.5 1.1 L-62.8 -3.5 M-55.1 5.4 L-64.6 -8.6 M-55.1 5.4 L-65.6 1.6 M-57.3 10.5 L-62.8 -3.5 M-57.3 10.5 L-71.3 3.9 M-61.9 13.3 L-65.6 1.6 M-61.9 13.3 L-76.6 1.9 M-66.1 12.2 L-71.3 3.9 M-66.1 12.2 L-78.4 -3.1 M-67.5 7.8 L-76.6 1.9 M-67.5 7.8 L-75.6 -8.3 M-65.3 2.7 L-78.4 -3.1 M-65.3 2.7 L-69.9 -10.5 M-60.8 -0.1 L-75.6 -8.3 M-69.9 -10.5 L-65.7 -18.6 M-64.6 -8.6 L-71.5 -21.6 M-64.6 -8.6 L-63.7 -12.9 M-62.8 -3.5 L-65.7 -18.6 M-62.8 -3.5 L-66.7 -7.7 M-65.6 1.6 L-63.7 -12.9 M-65.6 1.6 L-73.0 -6.2 M-71.3 3.9 L-66.7 -7.7 M-71.3 3.9 L-78.9 -9.2 M-76.6 1.9 L-73.0 -6.2 M-76.6 1.9 L-80.9 -14.9 M-78.4 -3.1 L-78.9 -9.2 M-78.4 -3.1 L-77.8 -20.1 M-75.6 -8.3 L-80.9 -14.9 M-75.6 -8.3 L-71.5 -21.6 M-69.9 -10.5 L-77.8 -20.1 M-71.5 -21.6 L-59.8 -28.1 M-65.7 -18.6 L-65.6 -32.2 M-65.7 -18.6 L-57.8 -21.7 M-63.7 -12.9 L-59.8 -28.1 M-63.7 -12.9 L-60.8 -16.6 M-66.7 -7.7 L-57.8 -21.7 M-66.7 -7.7 L-67.0 -15.9 M-73.0 -6.2 L-60.8 -16.6 M-73.0 -6.2 L-72.8 -20.0 M-78.9 -9.2 L-67.0 -15.9 M-78.9 -9.2 L-74.8 -26.5 M-80.9 -14.9 L-72.8 -20.0 M-80.9 -14.9 L-71.8 -31.5 M-77.8 -20.1 L-74.8 -26.5 M-77.8 -20.1 L-65.6 -32.2 M-71.5 -21.6 L-71.8 -31.5 M-65.6 -32.2 L-48.0 -36.3 M-59.8 -28.1 L-53.0 -41.5 M-59.8 -28.1 L-46.2 -29.1 M-57.8 -21.7 L-48.0 -36.3 M-57.8 -21.7 L-48.7 -24.1 M-60.8 -16.6 L-46.2 -29.1 M-60.8 -16.6 L-54.1 -24.2 M-67.0 -15.9 L-48.7 -24.1 M-67.0 -15.9 L-59.1 -29.4 M-72.8 -20.0 L-54.1 -24.2 M-72.8 -20.0 L-60.9 -36.7 M-74.8 -26.5 L-59.1 -29.4 M-74.8 -26.5 L-58.4 -41.7 M-71.8 -31.5 L-60.9 -36.7 M-71.8 -31.5 L-53.0 -41.5 M-65.6 -32.2 L-58.4 -41.7 M-53.0 -41.5 L-31.7 -42.4 M-48.0 -36.3 L-35.2 -48.6 M-48.0 -36.3 L-30.3 -34.5 M-46.2 -29.1 L-31.7 -42.4 M-46.2 -29.1 L-32.0 -29.5 M-48.7 -24.1 L-30.3 -34.5 M-48.7 -24.1 L-35.7 -30.4 M-54.1 -24.2 L-32.0 -29.5 M-54.1 -24.2 L-39.2 -36.6 M-59.1 -29.4 L-35.7 -30.4 M-59.1 -29.4 L-40.6 -44.6 M-60.9 -36.7 L-39.2 -36.6 M-60.9 -36.7 L-38.9 -49.5 M-58.4 -41.7 L-40.6 -44.6 M-58.4 -41.7 L-35.2 -48.6 M-53.0 -41.5 L-38.9 -49.5 M-35.2 -48.6 L-12.8 -46.1 M-31.7 -42.4 L-14.3 -53.1 M-31.7 -42.4 L-12.1 -37.5 M-30.3 -34.5 L-12.8 -46.1 M-30.3 -34.5 L-12.5 -32.5 M-32.0 -29.5 L-12.1 -37.5 M-32.0 -29.5 L-13.8 -33.9 M-35.7 -30.4 L-12.5 -32.5 M-35.7 -30.4 L-15.3 -40.9 M-39.2 -36.6 L-13.8 -33.9 M-39.2 -36.6 L-16.0 -49.4 M-40.6 -44.6 L-15.3 -40.9 M-40.6 -44.6 L-15.6 -54.5 M-38.9 -49.5 L-16.0 -49.4 M-38.9 -49.5 L-14.3 -53.1 M-35.2 -48.6 L-15.6 -54.5 M-14.3 -53.1 L6.5 -47.1 M-12.8 -46.1 L7.5 -54.7 M-12.8 -46.1 L6.6 -38.0 M-12.1 -37.5 L6.5 -47.1 M-12.1 -37.5 L7.7 -32.7 M-12.5 -32.5 L6.6 -38.0 M-12.5 -32.5 L9.2 -34.3 M-13.8 -33.9 L7.7 -32.7 M-13.8 -33.9 L10.2 -41.9 M-15.3 -40.9 L9.2 -34.3 M-15.3 -40.9 L10.1 -50.9 M-16.0 -49.4 L10.2 -41.9 M-16.0 -49.4 L9.0 -56.2 M-15.6 -54.5 L10.1 -50.9 M-15.6 -54.5 L7.5 -54.7 M-14.3 -53.1 L9.0 -56.2 M7.5 -54.7 L24.4 -45.6 M6.5 -47.1 L27.9 -53.1 M6.5 -47.1 L23.8 -36.3 M6.6 -38.0 L24.4 -45.6 M6.6 -38.0 L26.4 -30.8 M7.7 -32.7 L23.8 -36.3 M7.7 -32.7 L30.8 -32.1 M9.2 -34.3 L26.4 -30.8 M9.2 -34.3 L34.3 -39.6 M10.2 -41.9 L30.8 -32.1 M10.2 -41.9 L35.0 -48.9 M10.1 -50.9 L34.3 -39.6 M10.1 -50.9 L32.3 -54.4 M9.0 -56.2 L35.0 -48.9 M9.0 -56.2 L27.9 -53.1 M7.5 -54.7 L32.3 -54.4 M27.9 -53.1 L39.2 -41.9 M24.4 -45.6 L44.8 -48.8 M24.4 -45.6 L38.1 -32.8 M23.8 -36.3 L39.2 -41.9 M23.8 -36.3 L42.0 -26.9 M26.4 -30.8 L38.1 -32.8 M26.4 -30.8 L48.8 -27.6 M30.8 -32.1 L42.0 -26.9 M30.8 -32.1 L54.3 -34.5 M34.3 -39.6 L48.8 -27.6 M34.3 -39.6 L55.5 -43.6 M35.0 -48.9 L54.3 -34.5 M35.0 -48.9 L51.6 -49.5 M32.3 -54.4 L55.5 -43.6 M32.3 -54.4 L44.8 -48.8 M27.9 -53.1 L51.6 -49.5 M44.8 -48.8 L49.5 -36.5 M39.2 -41.9 L56.6 -42.6 M39.2 -41.9 L48.0 -27.6 M38.1 -32.8 L49.5 -36.5 M38.1 -32.8 L52.9 -21.2 M42.0 -26.9 L48.0 -27.6 M42.0 -26.9 L61.2 -21.0 M48.8 -27.6 L52.9 -21.2 M48.8 -27.6 L68.3 -27.2 M54.3 -34.5 L61.2 -21.0 M54.3 -34.5 L69.8 -36.0 M55.5 -43.6 L68.3 -27.2 M55.5 -43.6 L64.9 -42.4 M51.6 -49.5 L69.8 -36.0 M51.6 -49.5 L56.6 -42.6 M44.8 -48.8 L64.9 -42.4 M56.6 -42.6 L54.4 -30.3 M49.5 -36.5 L62.0 -35.5 M49.5 -36.5 L52.7 -21.6 M48.0 -27.6 L54.4 -30.3 M48.0 -27.6 L57.9 -14.6 M52.9 -21.2 L52.7 -21.6 M52.9 -21.2 L67.0 -13.4 M61.2 -21.0 L57.9 -14.6 M61.2 -21.0 L74.7 -18.6 M68.3 -27.2 L67.0 -13.4 M68.3 -27.2 L76.4 -27.2 M69.8 -36.0 L74.7 -18.6 M69.8 -36.0 L71.2 -34.2 M64.9 -42.4 L76.4 -27.2 M64.9 -42.4 L62.0 -35.5 M56.6 -42.6 L71.2 -34.2 M62.0 -35.5 L53.4 -23.8 M54.4 -30.3 L60.9 -28.1 M54.4 -30.3 L51.7 -15.5 M52.7 -21.6 L53.4 -23.8 M52.7 -21.6 L56.8 -7.9 M57.9 -14.6 L51.7 -15.5 M57.9 -14.6 L65.7 -5.5 M67.0 -13.4 L56.8 -7.9 M67.0 -13.4 L73.2 -9.8 M74.7 -18.6 L65.7 -5.5 M74.7 -18.6 L74.9 -18.2 M76.4 -27.2 L73.2 -9.8 M76.4 -27.2 L69.8 -25.7 M71.2 -34.2 L74.9 -18.2 M71.2 -34.2 L60.9 -28.1 M62.0 -35.5 L69.8 -25.7 M60.9 -28.1 L46.9 -18.0 M53.4 -23.8 L53.4 -21.4 M53.4 -23.8 L45.3 -9.9 M51.7 -15.5 L46.9 -18.0 M51.7 -15.5 L49.7 -1.7 M56.8 -7.9 L45.3 -9.9 M56.8 -7.9 L57.5 1.6 M65.7 -5.5 L49.7 -1.7 M65.7 -5.5 L64.0 -1.8 M73.2 -9.8 L57.5 1.6 M73.2 -9.8 L65.6 -9.9 M74.9 -18.2 L64.0 -1.8 M74.9 -18.2 L61.2 -18.1 M69.8 -25.7 L65.6 -9.9 M69.8 -25.7 L53.4 -21.4 M60.9 -28.1 L61.2 -18.1 M53.4 -21.4 L35.6 -13.5 M46.9 -18.0 L40.6 -16.3 M46.9 -18.0 L34.4 -5.5 M45.3 -9.9 L35.6 -13.5 M45.3 -9.9 L37.6 3.0 M49.7 -1.7 L34.4 -5.5 M49.7 -1.7 L43.3 7.2 M57.5 1.6 L37.6 3.0 M57.5 1.6 L48.3 4.5 M64.0 -1.8 L43.3 7.2 M64.0 -1.8 L49.6 -3.5 M65.6 -9.9 L48.3 4.5 M65.6 -9.9 L46.4 -12.1 M61.2 -18.1 L49.6 -3.5 M61.2 -18.1 L40.6 -16.3 M53.4 -21.4 L46.4 -12.1 M40.6 -16.3 L21.0 -10.8 M35.6 -13.5 L23.9 -13.1 M35.6 -13.5 L20.1 -3.0 M34.4 -5.5 L21.0 -10.8 M34.4 -5.5 L21.8 5.9 M37.6 3.0 L20.1 -3.0 M37.6 3.0 L25.0 10.5 M43.3 7.2 L21.8 5.9 M43.3 7.2 L27.9 8.2 M48.3 4.5 L25.0 10.5 M48.3 4.5 L28.7 0.4 M49.6 -3.5 L27.9 8.2 M49.6 -3.5 L27.1 -8.5 M46.4 -12.1 L28.7 0.4 M46.4 -12.1 L23.9 -13.1 M40.6 -16.3 L27.1 -8.5 M23.9 -13.1 L4.7 -10.3 M21.0 -10.8 L5.3 -12.4 M21.0 -10.8 L4.2 -2.5 M20.1 -3.0 L4.7 -10.3 M20.1 -3.0 L4.0 6.4 M21.8 5.9 L4.2 -2.5 M21.8 5.9 L4.3 11.2 M25.0 10.5 L4.0 6.4 M25.0 10.5 L4.9 9.0 M27.9 8.2 L4.3 11.2 M27.9 8.2 L5.4 1.2 M28.7 0.4 L4.9 9.0 M28.7 0.4 L5.6 -7.7 M27.1 -8.5 L5.4 1.2 M27.1 -8.5 L5.3 -12.4 M23.9 -13.1 L5.6 -7.7 M5.3 -12.4 L-11.6 -11.9 M4.7 -10.3 L-13.3 -14.2 M4.7 -10.3 L-11.7 -4.1 M4.2 -2.5 L-11.6 -11.9 M4.2 -2.5 L-13.7 4.6 M4.0 6.4 L-11.7 -4.1 M4.0 6.4 L-16.3 9.1 M4.3 11.2 L-13.7 4.6 M4.3 11.2 L-18.1 6.7 M4.9 9.0 L-16.3 9.1 M4.9 9.0 L-17.9 -1.1 M5.4 1.2 L-18.1 6.7 M5.4 1.2 L-16.0 -9.7 M5.6 -7.7 L-17.9 -1.1 M5.6 -7.7 L-13.3 -14.2 M5.3 -12.4 L-16.0 -9.7 M-13.3 -14.2 L-26.1 -15.5 M-11.6 -11.9 L-30.0 -18.3 M-11.6 -11.9 L-26.0 -7.7 M-11.7 -4.1 L-26.1 -15.5 M-11.7 -4.1 L-29.6 0.5 M-13.7 4.6 L-26.0 -7.7 M-13.7 4.6 L-34.9 4.4 M-16.3 9.1 L-29.6 0.5 M-16.3 9.1 L-38.7 1.5 M-18.1 6.7 L-34.9 4.4 M-18.1 6.7 L-38.8 -6.3 M-17.9 -1.1 L-38.7 1.5 M-17.9 -1.1 L-35.2 -14.5 M-16.0 -9.7 L-38.8 -6.3 M-16.0 -9.7 L-30.0 -18.3 M-13.3 -14.2 L-35.2 -14.5 M-30.0 -18.3 L-37.5 -20.8 M-26.1 -15.5 L-42.9 -24.4 M-26.1 -15.5 L-37.1 -13.0 M-26.0 -7.7 L-37.5 -20.8 M-26.0 -7.7 L-42.0 -5.4 M-29.6 0.5 L-37.1 -13.0 M-29.6 0.5 L-49.3 -2.5 M-34.9 4.4 L-42.0 -5.4 M-34.9 4.4 L-54.7 -6.0 M-38.7 1.5 L-49.3 -2.5 M-38.7 1.5 L-55.1 -13.9 M-38.8 -6.3 L-54.7 -6.0 M-38.8 -6.3 L-50.2 -21.5 M-35.2 -14.5 L-55.1 -13.9 M-35.2 -14.5 L-42.9 -24.4 M-30.0 -18.3 L-50.2 -21.5 M-42.9 -24.4 L-44.5 -27.3 M-37.5 -20.8 L-51.0 -31.7 M-37.5 -20.8 L-44.0 -19.4 M-37.1 -13.0 L-44.5 -27.3 M-37.1 -13.0 L-49.7 -12.6 M-42.0 -5.4 L-44.0 -19.4 M-42.0 -5.4 L-58.3 -10.9 M-49.3 -2.5 L-49.7 -12.6 M-49.3 -2.5 L-64.7 -15.3 M-54.7 -6.0 L-58.3 -10.9 M-54.7 -6.0 L-65.2 -23.2 M-55.1 -13.9 L-64.7 -15.3 M-55.1 -13.9 L-59.5 -30.0 M-50.2 -21.5 L-65.2 -23.2 M-50.2 -21.5 L-51.0 -31.7 M-42.9 -24.4 L-59.5 -30.0 M-51.0 -31.7 L-46.7 -34.3 M-44.5 -27.3 L-53.4 -39.6 M-44.5 -27.3 L-46.1 -26.3 M-44.0 -19.4 L-46.7 -34.3 M-44.0 -19.4 L-52.0 -20.4 M-49.7 -12.6 L-46.1 -26.3 M-49.7 -12.6 L-60.9 -20.0 M-58.3 -10.9 L-52.0 -20.4 M-58.3 -10.9 L-67.7 -25.3 M-64.7 -15.3 L-60.9 -20.0 M-64.7 -15.3 L-68.3 -33.3 M-65.2 -23.2 L-67.7 -25.3 M-65.2 -23.2 L-62.4 -39.2 M-59.5 -30.0 L-68.3 -33.3 M-59.5 -30.0 L-53.4 -39.6 M-51.0 -31.7 L-62.4 -39.2 M-53.4 -39.6 L-43.9 -41.1 M-46.7 -34.3 L-50.3 -47.4 M-46.7 -34.3 L-43.3 -33.1 M-46.1 -26.3 L-43.9 -41.1 M-46.1 -26.3 L-48.8 -28.1 M-52.0 -20.4 L-43.3 -33.1 M-52.0 -20.4 L-57.1 -28.9 M-60.9 -20.0 L-48.8 -28.1 M-60.9 -20.0 L-63.5 -35.2 M-67.7 -25.3 L-57.1 -28.9 M-67.7 -25.3 L-64.1 -43.2 M-68.3 -33.3 L-63.5 -35.2 M-68.3 -33.3 L-58.6 -48.2 M-62.4 -39.2 L-64.1 -43.2 M-62.4 -39.2 L-50.3 -47.4 M-53.4 -39.6 L-58.6 -48.2 M-50.3 -47.4 L-36.7 -47.2 M-43.9 -41.1 L-41.9 -54.2 M-43.9 -41.1 L-36.1 -39.2 M-43.3 -33.1 L-36.7 -47.2 M-43.3 -33.1 L-40.5 -34.9 M-48.8 -28.1 L-36.1 -39.2 M-48.8 -28.1 L-47.4 -36.8 M-57.1 -28.9 L-40.5 -34.9 M-57.1 -28.9 L-52.7 -43.9 M-63.5 -35.2 L-47.4 -36.8 M-63.5 -35.2 L-53.3 -51.9 M-64.1 -43.2 L-52.7 -43.9 M-64.1 -43.2 L-48.8 -56.2 M-58.6 -48.2 L-53.3 -51.9 M-58.6 -48.2 L-41.9 -54.2 M-50.3 -47.4 L-48.8 -56.2 M-41.9 -54.2 L-25.8 -51.9 M-36.7 -47.2 L-29.6 -59.6 M-36.7 -47.2 L-25.3 -43.9 M-36.1 -39.2 L-25.8 -51.9 M-36.1 -39.2 L-28.2 -40.2 M-40.5 -34.9 L-25.3 -43.9 M-40.5 -34.9 L-32.9 -43.1 M-47.4 -36.8 L-28.2 -40.2 M-47.4 -36.8 L-36.6 -50.8 M-52.7 -43.9 L-32.9 -43.1 M-52.7 -43.9 L-37.2 -58.8 M-53.3 -51.9 L-36.6 -50.8 M-53.3 -51.9 L-34.3 -62.5 M-48.8 -56.2 L-37.2 -58.8 M-48.8 -56.2 L-29.6 -59.6 M-41.9 -54.2 L-34.3 -62.5 M-29.6 -59.6 L-12.7 -55.0 M-25.8 -51.9 L-14.5 -63.1 M-25.8 -51.9 L-12.2 -47.0 M-25.3 -43.9 L-12.7 -55.0 M-25.3 -43.9 L-13.2 -43.7 M-28.2 -40.2 L-12.2 -47.0 M-28.2 -40.2 L-15.3 -47.1 M-32.9 -43.1 L-13.2 -43.7 M-32.9 -43.1 L-17.1 -55.2 M-36.6 -50.8 L-15.3 -47.1 M-36.6 -50.8 L-17.6 -63.2 M-37.2 -58.8 L-17.1 -55.2 M-37.2 -58.8 L-16.6 -66.5 M-34.3 -62.5 L-17.6 -63.2 M-34.3 -62.5 L-14.5 -63.1 M-29.6 -59.6 L-16.6 -66.5 M-14.5 -63.1 L1.3 -56.3 M-12.7 -55.0 L1.5 -64.4 M-12.7 -55.0 L1.8 -48.3 M-12.2 -47.0 L1.3 -56.3 M-12.2 -47.0 L2.7 -45.1 M-13.2 -43.7 L1.8 -48.3 M-13.2 -43.7 L3.5 -48.7 M-15.3 -47.1 L2.7 -45.1 M-15.3 -47.1 L3.7 -56.8 M-17.1 -55.2 L3.5 -48.7 M-17.1 -55.2 L3.2 -64.8 M-17.6 -63.2 L3.7 -56.8 M-17.6 -63.2 L2.3 -68.0 M-16.6 -66.5 L3.2 -64.8 M-16.6 -66.5 L1.5 -64.4 M-14.5 -63.1 L2.3 -68.0 M1.5 -64.4 L14.6 -55.7 M1.3 -56.3 L16.7 -63.7 M1.3 -56.3 L15.1 -47.7 M1.8 -48.3 L14.6 -55.7 M1.8 -48.3 L18.0 -44.4 M2.7 -45.1 L15.1 -47.7 M2.7 -45.1 L21.6 -47.7 M3.5 -48.7 L18.0 -44.4 M3.5 -48.7 L23.7 -55.8 M3.7 -56.8 L21.6 -47.7 M3.7 -56.8 L23.2 -63.8 M3.2 -64.8 L23.7 -55.8 M3.2 -64.8 L20.3 -67.1 M2.3 -68.0 L23.2 -63.8 M2.3 -68.0 L16.7 -63.7 M1.5 -64.4 L20.3 -67.1 M16.7 -63.7 L25.9 -53.5 M14.6 -55.7 L29.7 -61.1 M14.6 -55.7 L26.4 -45.5 M15.1 -47.7 L25.9 -53.5 M15.1 -47.7 L31.0 -41.8 M18.0 -44.4 L26.4 -45.5 M18.0 -44.4 L36.9 -44.6 M21.6 -47.7 L31.0 -41.8 M21.6 -47.7 L40.7 -52.3 M23.7 -55.8 L36.9 -44.6 M23.7 -55.8 L40.1 -60.3 M23.2 -63.8 L40.7 -52.3 M23.2 -63.8 L35.5 -63.9 M20.3 -67.1 L40.1 -60.3 M20.3 -67.1 L29.7 -61.1 M16.7 -63.7 L35.5 -63.9 M29.7 -61.1 L34.0 -50.1 M25.9 -53.5 L39.0 -57.1 M25.9 -53.5 L34.6 -42.1 M26.4 -45.5 L34.0 -50.1 M26.4 -45.5 L40.4 -37.8 M31.0 -41.8 L34.6 -42.1 M31.0 -41.8 L48.0 -39.8 M36.9 -44.6 L40.4 -37.8 M36.9 -44.6 L52.9 -46.9 M40.7 -52.3 L48.0 -39.8 M40.7 -52.3 L52.4 -54.9 M40.1 -60.3 L52.9 -46.9 M40.1 -60.3 L46.6 -59.1 M35.5 -63.9 L52.4 -54.9 M35.5 -63.9 L39.0 -57.1 M29.7 -61.1 L46.6 -59.1 M39.0 -57.1 L38.3 -45.9 M34.0 -50.1 L43.9 -52.3 M34.0 -50.1 L38.9 -37.9 M34.6 -42.1 L38.3 -45.9 M34.6 -42.1 L45.3 -32.9 M40.4 -37.8 L38.9 -37.9 M40.4 -37.8 L53.7 -33.9 M48.0 -39.8 L45.3 -32.9 M48.0 -39.8 L59.3 -40.3 M52.9 -46.9 L53.7 -33.9 M52.9 -46.9 L58.8 -48.4 M52.4 -54.9 L59.3 -40.3 M52.4 -54.9 L52.4 -53.3 M46.6 -59.1 L58.8 -48.4 M46.6 -59.1 L43.9 -52.3 M39.0 -57.1 L52.4 -53.3 M43.9 -52.3 L38.5 -41.5 M38.3 -45.9 L44.1 -47.2 M38.3 -45.9 L38.9 -33.5 M38.9 -37.9 L38.5 -41.5 M38.9 -37.9 L45.3 -27.8 M45.3 -32.9 L38.9 -33.5 M45.3 -32.9 L53.7 -27.8 M53.7 -33.9 L45.3 -27.8 M53.7 -33.9 L59.3 -33.5 M59.3 -40.3 L53.7 -27.8 M59.3 -40.3 L58.9 -41.5 M58.8 -48.4 L59.3 -33.5 M58.8 -48.4 L52.5 -47.2 M52.4 -53.3 L58.9 -41.5 M52.4 -53.3 L44.1 -47.2 M43.9 -52.3 L52.5 -47.2 M44.1 -47.2 L34.6 -37.5 M38.5 -41.5 L39.7 -42.6 M38.5 -41.5 L34.9 -29.4 M38.9 -33.5 L34.6 -37.5 M38.9 -33.5 L40.5 -23.0 M45.3 -27.8 L34.9 -29.4 M45.3 -27.8 L48.1 -22.1 M53.7 -27.8 L40.5 -23.0 M53.7 -27.8 L53.1 -27.1 M59.3 -33.5 L48.1 -22.1 M59.3 -33.5 L52.8 -35.2 M58.9 -41.5 L53.1 -27.1 M58.9 -41.5 L47.2 -41.6 M52.5 -47.2 L52.8 -35.2 M52.5 -47.2 L39.7 -42.6 M44.1 -47.2 L47.2 -41.6 M39.7 -42.6 L27.3 -34.4 M34.6 -37.5 L31.3 -38.9 M34.6 -37.5 L27.4 -26.2 M34.9 -29.4 L27.3 -34.4 M34.9 -29.4 L31.7 -19.3 M40.5 -23.0 L27.4 -26.2 M40.5 -23.0 L37.5 -17.5 M48.1 -22.1 L31.7 -19.3 M48.1 -22.1 L41.5 -22.0 M53.1 -27.1 L37.5 -17.5 M53.1 -27.1 L41.4 -30.2 M52.8 -35.2 L41.5 -22.0 M52.8 -35.2 L37.1 -37.1 M47.2 -41.6 L41.4 -30.2 M47.2 -41.6 L31.3 -38.9 M39.7 -42.6 L37.1 -37.1 M31.3 -38.9 L17.4 -32.4 M27.3 -34.4 L20.0 -36.6 M27.3 -34.4 L17.3 -24.3 M27.4 -26.2 L17.4 -32.4 M27.4 -26.2 L19.7 -17.0 M31.7 -19.3 L17.3 -24.3 M31.7 -19.3 L23.3 -14.8 M37.5 -17.5 L19.7 -17.0 M37.5 -17.5 L25.9 -18.9 M41.5 -22.0 L23.3 -14.8 M41.5 -22.0 L26.0 -27.0 M41.4 -30.2 L25.9 -18.9 M41.4 -30.2 L23.6 -34.3 M37.1 -37.1 L26.0 -27.0 M37.1 -37.1 L20.0 -36.6 M31.3 -38.9 L23.6 -34.3 M20.0 -36.6 L6.2 -31.9 M17.4 -32.4 L7.2 -35.9 M17.4 -32.4 L5.7 -23.9 M17.3 -24.3 L6.2 -31.9 M17.3 -24.3 L6.0 -16.5 M19.7 -17.0 L5.7 -23.9 M19.7 -17.0 L6.9 -14.1 M23.3 -14.8 L6.0 -16.5 M23.3 -14.8 L7.9 -18.1 M25.9 -18.9 L6.9 -14.1 M25.9 -18.9 L8.4 -26.1 M26.0 -27.0 L7.9 -18.1 M26.0 -27.0 L8.1 -33.5 M23.6 -34.3 L8.4 -26.1 M23.6 -34.3 L7.2 -35.9 M20.0 -36.6 L8.1 -33.5 M7.2 -35.9 L-5.2 -33.0 M6.2 -31.9 L-5.9 -37.1 M6.2 -31.9 L-6.0 -25.0 M5.7 -23.9 L-5.2 -33.0 M5.7 -23.9 L-7.9 -17.8 M6.0 -16.5 L-6.0 -25.0 M6.0 -16.5 L-9.7 -15.6 M6.9 -14.1 L-7.9 -17.8 M6.9 -14.1 L-10.3 -19.7 M7.9 -18.1 L-9.7 -15.6 M7.9 -18.1 L-9.5 -27.6 M8.4 -26.1 L-10.3 -19.7 M8.4 -26.1 L-7.7 -34.8 M8.1 -33.5 L-9.5 -27.6 M8.1 -33.5 L-5.9 -37.1 M7.2 -35.9 L-7.7 -34.8 M-5.9 -37.1 L-15.5 -35.5 M-5.2 -33.0 L-17.7 -39.8 M-5.2 -33.0 L-16.7 -27.7 M-6.0 -25.0 L-15.5 -35.5 M-6.0 -25.0 L-20.6 -20.9 M-7.9 -17.8 L-16.7 -27.7 M-7.9 -17.8 L-24.8 -19.2 M-9.7 -15.6 L-20.6 -20.9 M-9.7 -15.6 L-27.0 -23.6 M-10.3 -19.7 L-24.8 -19.2 M-10.3 -19.7 L-25.8 -31.4 M-9.5 -27.6 L-27.0 -23.6 M-9.5 -27.6 L-22.0 -38.1 M-7.7 -34.8 L-25.8 -31.4 M-7.7 -34.8 L-17.7 -39.8 M-5.9 -37.1 L-22.0 -38.1 M-17.7 -39.8 L-23.8 -39.2 M-15.5 -35.5 L-27.2 -44.0 M-15.5 -35.5 L-25.3 -31.5 M-16.7 -27.7 L-23.8 -39.2 M-16.7 -27.7 L-30.7 -25.5 M-20.6 -20.9 L-25.3 -31.5 M-20.6 -20.9 L-37.0 -24.7 M-24.8 -19.2 L-30.7 -25.5 M-24.8 -19.2 L-40.3 -29.5 M-27.0 -23.6 L-37.0 -24.7 M-27.0 -23.6 L-38.9 -37.1 M-25.8 -31.4 L-40.3 -29.5 M-25.8 -31.4 L-33.4 -43.1 M-22.0 -38.1 L-38.9 -37.1 M-22.0 -38.1 L-27.2 -44.0 M-17.7 -39.8 L-33.4 -43.1 M-27.2 -44.0 L-29.2 -43.7 M-23.8 -39.2 L-33.3 -49.0 M-23.8 -39.2 L-30.8 -36.3 M-25.3 -31.5 L-29.2 -43.7 M-25.3 -31.5 L-37.3 -31.2 M-30.7 -25.5 L-30.8 -36.3 M-30.7 -25.5 L-44.9 -31.4 M-37.0 -24.7 L-37.3 -31.2 M-37.0 -24.7 L-49.1 -36.8 M-40.3 -29.5 L-44.9 -31.4 M-40.3 -29.5 L-47.4 -44.2 M-38.9 -37.1 L-49.1 -36.8 M-38.9 -37.1 L-40.9 -49.2 M-33.4 -43.1 L-47.4 -44.2 M-33.4 -43.1 L-33.3 -49.0 M-27.2 -44.0 L-40.9 -49.2 M-33.3 -49.0 L-31.3 -48.6 M-29.2 -43.7 L-35.8 -54.6 M-29.2 -43.7 L-33.0 -41.5 M-30.8 -36.3 L-31.3 -48.6 M-30.8 -36.3 L-39.8 -37.4 M-37.3 -31.2 L-33.0 -41.5 M-37.3 -31.2 L-47.9 -38.8 M-44.9 -31.4 L-39.8 -37.4 M-44.9 -31.4 L-52.4 -44.8 M-49.1 -36.8 L-47.9 -38.8 M-49.1 -36.8 L-50.7 -51.9 M-47.4 -44.2 L-52.4 -44.8 M-47.4 -44.2 L-43.8 -55.9 M-40.9 -49.2 L-50.7 -51.9 M-40.9 -49.2 L-35.8 -54.6 M-33.3 -49.0 L-43.8 -55.9 M-35.8 -54.6 L-30.0 -53.5 M-31.3 -48.6 L-34.4 -60.1 M-31.3 -48.6 L-31.6 -46.6 M-33.0 -41.5 L-30.0 -53.5 M-33.0 -41.5 L-38.1 -43.6 M-39.8 -37.4 L-31.6 -46.6 M-39.8 -37.4 L-45.8 -46.1 M-47.9 -38.8 L-38.1 -43.6 M-47.9 -38.8 L-50.1 -52.7 M-52.4 -44.8 L-45.8 -46.1 M-52.4 -44.8 L-48.6 -59.6 M-50.7 -51.9 L-50.1 -52.7 M-50.7 -51.9 L-42.0 -62.6 M-43.8 -55.9 L-48.6 -59.6 M-43.8 -55.9 L-34.4 -60.1 M-35.8 -54.6 L-42.0 -62.6 M-34.4 -60.1 L-25.7 -57.9 M-30.0 -53.5 L-29.5 -65.0 M-30.0 -53.5 L-26.9 -51.3 M-31.6 -46.6 L-25.7 -57.9 M-31.6 -46.6 L-32.4 -49.2 M-38.1 -43.6 L-26.9 -51.3 M-38.1 -43.6 L-38.9 -52.8 M-45.8 -46.1 L-32.4 -49.2 M-45.8 -46.1 L-42.7 -59.9 M-50.1 -52.7 L-38.9 -52.8 M-50.1 -52.7 L-41.5 -66.5 M-48.6 -59.6 L-42.7 -59.9 M-48.6 -59.6 L-36.0 -68.6 M-42.0 -62.6 L-41.5 -66.5 M-42.0 -62.6 L-29.5 -65.0 M-34.4 -60.1 L-36.0 -68.6 M-29.5 -65.0 L-18.9 -61.4 M-25.7 -57.9 L-21.8 -69.0 M-25.7 -57.9 L-19.6 -55.1 M-26.9 -51.3 L-18.9 -61.4 M-26.9 -51.3 L-23.4 -53.7 M-32.4 -49.2 L-19.6 -55.1 M-32.4 -49.2 L-28.1 -58.2 M-38.9 -52.8 L-23.4 -53.7 M-38.9 -52.8 L-31.0 -65.8 M-42.7 -59.9 L-28.1 -58.2 M-42.7 -59.9 L-30.3 -72.1 M-41.5 -66.5 L-31.0 -65.8 M-41.5 -66.5 L-26.5 -73.4 M-36.0 -68.6 L-30.3 -72.1 M-36.0 -68.6 L-21.8 -69.0 M-29.5 -65.0 L-26.5 -73.4 M-21.8 -69.0 L-10.6 -63.9 M-18.9 -61.4 L-12.3 -71.8 M-18.9 -61.4 L-10.6 -57.7 M-19.6 -55.1 L-10.6 -63.9 M-19.6 -55.1 L-12.3 -56.9 M-23.4 -53.7 L-10.6 -57.7 M-23.4 -53.7 L-14.7 -61.9 M-28.1 -58.2 L-12.3 -56.9 M-28.1 -58.2 L-16.4 -69.8 M-31.0 -65.8 L-14.7 -61.9 M-31.0 -65.8 L-16.4 -75.9 M-30.3 -72.1 L-16.4 -69.8 M-30.3 -72.1 L-14.7 -76.8 M-26.5 -73.4 L-16.4 -75.9 M-26.5 -73.4 L-12.3 -71.8 M-21.8 -69.0 L-14.7 -76.8 M-12.3 -71.8 L-3.3 -63.8 M-10.6 -63.9 L-7.0 -71.0 M-10.6 -63.9 L1.6 -59.4 M-10.6 -57.7 L-3.3 -63.8 M-10.6 -57.7 L5.0 -60.3 M-12.3 -56.9 L1.6 -59.4 M-12.3 -56.9 L4.8 -65.9 M-14.7 -61.9 L5.0 -60.3 M-14.7 -61.9 L1.2 -73.0 M-16.4 -69.8 L4.8 -65.9 M-16.4 -69.8 L-3.8 -77.5 M-16.4 -75.9 L1.2 -73.0 M-16.4 -75.9 L-7.1 -76.6 M-14.7 -76.8 L-3.8 -77.5 M-14.7 -76.8 L-7.0 -71.0 M-12.3 -71.8 L-7.1 -76.6 M-7.0 -71.0 L-1.7 -69.9 M-3.3 -63.8 L-6.8 -73.2 M-3.3 -63.8 L4.6 -69.9 M1.6 -59.4 L-1.7 -69.9 M1.6 -59.4 L8.5 -73.1 M5.0 -60.3 L4.6 -69.9 M5.0 -60.3 L7.7 -77.8 M4.8 -65.9 L8.5 -73.1 M4.8 -65.9 L2.7 -81.0 M1.2 -73.0 L7.7 -77.8 M1.2 -73.0 L-3.6 -81.1 M-3.8 -77.5 L2.7 -81.0 M-3.8 -77.5 L-7.5 -77.8 M-7.1 -76.6 L-3.6 -81.1 M-7.1 -76.6 L-6.8 -73.2 M-7.0 -71.0 L-7.5 -77.8 M-6.8 -73.2 L-0.5 -77.2 M-1.7 -69.9 L-5.5 -80.2 M-1.7 -69.9 L5.7 -77.3 M4.6 -69.9 L-0.5 -77.2 M4.6 -69.9 L9.6 -80.5 M8.5 -73.1 L5.7 -77.3 M8.5 -73.1 L8.8 -84.9 M7.7 -77.8 L9.6 -80.5 M7.7 -77.8 L3.8 -88.0 M2.7 -81.0 L8.8 -84.9 M2.7 -81.0 L-2.4 -87.9 M-3.6 -81.1 L3.8 -88.0 M-3.6 -81.1 L-6.3 -84.7 M-7.5 -77.8 L-2.4 -87.9 M-7.5 -77.8 L-5.5 -80.2 M-6.8 -73.2 L-6.3 -84.7 M-5.5 -80.2 L0.3 -84.4 M-0.5 -77.2 L-4.6 -87.2 M-0.5 -77.2 L6.4 -84.7 M5.7 -77.3 L0.3 -84.4 M5.7 -77.3 L10.2 -87.9 M9.6 -80.5 L6.4 -84.7 M9.6 -80.5 L9.4 -92.1 M8.8 -84.9 L10.2 -87.9 M8.8 -84.9 L4.5 -94.9 M3.8 -88.0 L9.4 -92.1 M3.8 -88.0 L-1.6 -94.6 M-2.4 -87.9 L4.5 -94.9 M-2.4 -87.9 L-5.4 -91.4 M-6.3 -84.7 L-1.6 -94.6 M-6.3 -84.7 L-4.6 -87.2 M-5.5 -80.2 L-5.4 -91.4 M-4.6 -87.2 L0.6 -91.8 M0.3 -84.4 L-4.2 -94.2 M0.3 -84.4 L6.7 -92.2 M6.4 -84.7 L0.6 -91.8 M6.4 -84.7 L10.4 -95.4 M10.2 -87.9 L6.7 -92.2 M10.2 -87.9 L9.6 -99.4 M9.4 -92.1 L10.4 -95.4 M9.4 -92.1 L4.8 -101.8 M4.5 -94.9 L9.6 -99.4 M4.5 -94.9 L-1.3 -101.3 M-1.6 -94.6 L4.8 -101.8 M-1.6 -94.6 L-5.0 -98.2 M-5.4 -91.4 L-1.3 -101.3 M-5.4 -91.4 L-4.2 -94.2 M-4.6 -87.2 L-5.0 -98.2 M-4.2 -94.2 L0.4 -99.1 M0.6 -91.8 L-4.3 -101.2 M0.6 -91.8 L6.4 -99.8 M6.7 -92.2 L0.4 -99.1 M6.7 -92.2 L10.1 -102.9 M10.4 -95.4 L6.4 -99.8 M10.4 -95.4 L9.3 -106.6 M9.6 -99.4 L10.1 -102.9 M9.6 -99.4 L4.6 -108.6 M4.8 -101.8 L9.3 -106.6 M4.8 -101.8 L-1.4 -107.9 M-1.3 -101.3 L4.6 -108.6 M-1.3 -101.3 L-5.1 -104.8 M-5.0 -98.2 L-1.4 -107.9 M-5.0 -98.2 L-4.3 -101.2 M-4.2 -94.2 L-5.1 -104.8 M-4.3 -101.2 L-0.3 -106.4 M0.4 -99.1 L-4.9 -108.1 M0.4 -99.1 L5.6 -107.4 M6.4 -99.8 L-0.3 -106.4 M6.4 -99.8 L9.2 -110.4 M10.1 -102.9 L5.6 -107.4 M10.1 -102.9 L8.5 -113.7 M9.3 -106.6 L9.2 -110.4 M9.3 -106.6 L3.8 -115.4 M4.6 -108.6 L8.5 -113.7 M4.6 -108.6 L-2.0 -114.4 M-1.4 -107.9 L3.8 -115.4 M-1.4 -107.9 L-5.6 -111.4 M-5.1 -104.8 L-2.0 -114.4 M-5.1 -104.8 L-4.9 -108.1 M-4.3 -101.2 L-5.6 -111.4 M-4.9 -108.1 L-1.5 -113.8 M-0.3 -106.4 L-6.0 -114.9 M-0.3 -106.4 L4.1 -115.0 M5.6 -107.4 L-1.5 -113.8 M5.6 -107.4 L7.7 -118.0 M9.2 -110.4 L4.1 -115.0 M9.2 -110.4 L7.1 -120.9 M8.5 -113.7 L7.7 -118.0 M8.5 -113.7 L2.6 -122.0 M3.8 -115.4 L7.1 -120.9 M3.8 -115.4 L-3.1 -120.7 M-2.0 -114.4 L2.6 -122.0 M-2.0 -114.4 L-6.7 -117.8 M-5.6 -111.4 L-3.1 -120.7 M-5.6 -111.4 L-6.0 -114.9 M-4.9 -108.1 L-6.7 -117.8 M-6.0 -114.9 L-3.4 -121.0 M-1.5 -113.8 L-7.7 -121.6 M-1.5 -113.8 L2.1 -122.7 M4.1 -115.0 L-3.4 -121.0 M4.1 -115.0 L5.6 -125.5 M7.7 -118.0 L2.1 -122.7 M7.7 -118.0 L5.1 -127.9 M7.1 -120.9 L5.6 -125.5 M7.1 -120.9 L0.8 -128.5 M2.6 -122.0 L5.1 -127.9 M2.6 -122.0 L-4.7 -126.9 M-3.1 -120.7 L0.8 -128.5 M-3.1 -120.7 L-8.2 -124.0 M-6.7 -117.8 L-4.7 -126.9 M-6.7 -117.8 L-7.7 -121.6 M-6.0 -114.9 L-8.2 -124.0 M-7.7 -121.6 L-6.0 -128.2 M-3.4 -121.0 L-9.9 -128.2 M-3.4 -121.0 L-0.7 -130.2 M2.1 -122.7 L-6.0 -128.2 M2.1 -122.7 L2.8 -133.0 M5.6 -125.5 L-0.7 -130.2 M5.6 -125.5 L2.4 -134.9 M5.1 -127.9 L2.8 -133.0 M5.1 -127.9 L-1.5 -134.8 M0.8 -128.5 L2.4 -134.9 M0.8 -128.5 L-6.8 -132.8 M-4.7 -126.9 L-1.5 -134.8 M-4.7 -126.9 L-10.3 -130.1 M-8.2 -124.0 L-6.8 -132.8 M-8.2 -124.0 L-9.9 -128.2 M-7.7 -121.6 L-10.3 -130.1 M-9.9 -128.2 L-9.1 -135.3 M-6.0 -128.2 L-12.7 -134.6 M-6.0 -128.2 L-4.1 -137.7 M-0.7 -130.2 L-9.1 -135.3 M-0.7 -130.2 L-0.7 -140.4 M2.8 -133.0 L-4.1 -137.7 M2.8 -133.0 L-0.8 -141.7 M2.4 -134.9 L-0.7 -140.4 M2.4 -134.9 L-4.4 -141.0 M-1.5 -134.8 L-0.8 -141.7 M-1.5 -134.8 L-9.4 -138.6 M-6.8 -132.8 L-4.4 -141.0 M-6.8 -132.8 L-12.8 -135.9 M-10.3 -130.1 L-9.4 -138.6 M-10.3 -130.1 L-12.7 -134.6 M-9.9 -128.2 L-12.8 -135.9 M-12.7 -134.6 L-12.9 -142.2 M-9.1 -135.3 L-16.1 -140.8 M-9.1 -135.3 L-8.3 -145.0 M-4.1 -137.7 L-12.9 -142.2 M-4.1 -137.7 L-4.9 -147.6 M-0.7 -140.4 L-8.3 -145.0 M-0.7 -140.4 L-4.7 -148.4 M-0.8 -141.7 L-4.9 -147.6 M-0.8 -141.7 L-7.9 -147.0 M-4.4 -141.0 L-4.7 -148.4 M-4.4 -141.0 L-12.5 -144.2 M-9.4 -138.6 L-7.9 -147.0 M-9.4 -138.6 L-15.9 -141.6 M-12.8 -135.9 L-12.5 -144.2 M-12.8 -135.9 L-16.1 -140.8 M-12.7 -134.6 L-15.9 -141.6 M-16.1 -140.8 L-17.3 -148.8 M-12.9 -142.2 L-20.0 -146.8 M-12.9 -142.2 L-13.1 -152.0 M-8.3 -145.0 L-17.3 -148.8 M-8.3 -145.0 L-9.7 -154.5 M-4.9 -147.6 L-13.1 -152.0 M-4.9 -147.6 L-9.2 -154.8 M-4.7 -148.4 L-9.7 -154.5 M-4.7 -148.4 L-11.9 -152.8 M-7.9 -147.0 L-9.2 -154.8 M-7.9 -147.0 L-16.2 -149.6 M-12.5 -144.2 L-11.9 -152.8 M-12.5 -144.2 L-19.6 -147.1 M-15.9 -141.6 L-16.2 -149.6 M-15.9 -141.6 L-20.0 -146.8 M-16.1 -140.8 L-19.6 -147.1 M-20.0 -146.8 L-22.4 -155.1 M-17.3 -148.8 L-24.5 -152.5 M-17.3 -148.8 L-18.5 -158.6 M-13.1 -152.0 L-22.4 -155.1 M-13.1 -152.0 L-15.2 -161.0 M-9.7 -154.5 L-18.5 -158.6 M-9.7 -154.5 L-14.4 -160.9 M-9.2 -154.8 L-15.2 -161.0 M-9.2 -154.8 L-16.6 -158.4 M-11.9 -152.8 L-14.4 -160.9 M-11.9 -152.8 L-20.4 -154.9 M-16.2 -149.6 L-16.6 -158.4 M-16.2 -149.6 L-23.7 -152.4 M-19.6 -147.1 L-20.4 -154.9 M-19.6 -147.1 L-24.5 -152.5 M-20.0 -146.8 L-23.7 -152.4 M-24.5 -152.5 L-27.9 -161.0 M-22.4 -155.1 L-29.6 -158.0 M-22.4 -155.1 L-24.4 -164.7 M-18.5 -158.6 L-27.9 -161.0 M-18.5 -158.6 L-21.2 -167.1 M-15.2 -161.0 L-24.4 -164.7 M-15.2 -161.0 L-20.1 -166.7 M-14.4 -160.9 L-21.2 -167.1 M-14.4 -160.9 L-21.8 -163.7 M-16.6 -158.4 L-20.1 -166.7 M-16.6 -158.4 L-25.3 -159.9 M-20.4 -154.9 L-21.8 -163.7 M-20.4 -154.9 L-28.5 -157.6 M-23.7 -152.4 L-25.3 -159.9 M-23.7 -152.4 L-29.6 -158.0 M-24.5 -152.5 L-28.5 -157.6 M-29.6 -158.0 L-34.0 -166.4 M-27.9 -161.0 L-35.2 -163.1 M-27.9 -161.0 L-30.9 -170.4 M-24.4 -164.7 L-34.0 -166.4 M-24.4 -164.7 L-27.7 -172.8 M-21.2 -167.1 L-30.9 -170.4 M-21.2 -167.1 L-26.3 -172.1 M-20.1 -166.7 L-27.7 -172.8 M-20.1 -166.7 L-27.6 -168.7 M-21.8 -163.7 L-26.3 -172.1 M-21.8 -163.7 L-30.7 -164.8 M-25.3 -159.9 L-27.6 -168.7 M-25.3 -159.9 L-33.9 -162.4 M-28.5 -157.6 L-30.7 -164.8 M-28.5 -157.6 L-35.2 -163.1 M-29.6 -158.0 L-33.9 -162.4 M-35.2 -163.1 L-40.6 -171.5 M-34.0 -166.4 L-41.4 -167.9 M-34.0 -166.4 L-37.8 -175.6 M-30.9 -170.4 L-40.6 -171.5 M-30.9 -170.4 L-34.7 -177.9 M-27.7 -172.8 L-37.8 -175.6 M-27.7 -172.8 L-33.1 -177.0 M-26.3 -172.1 L-34.7 -177.9 M-26.3 -172.1 L-33.9 -173.4 M-27.6 -168.7 L-33.1 -177.0 M-27.6 -168.7 L-36.7 -169.3 M-30.7 -164.8 L-33.9 -173.4 M-30.7 -164.8 L-39.8 -167.0 M-33.9 -162.4 L-36.7 -169.3 M-33.9 -162.4 L-41.4 -167.9 M-35.2 -163.1 L-39.8 -167.0 M-41.4 -167.9 L-47.6 -176.0 M-40.6 -171.5 L-48.1 -172.3 M-40.6 -171.5 L-45.2 -180.2 M-37.8 -175.6 L-47.6 -176.0 M-37.8 -175.6 L-42.2 -182.5 M-34.7 -177.9 L-45.2 -180.2 M-34.7 -177.9 L-40.4 -181.4 M-33.1 -177.0 L-42.2 -182.5 M-33.1 -177.0 L-40.8 -177.7 M-33.9 -173.4 L-40.4 -181.4 M-33.9 -173.4 L-43.2 -173.5 M-36.7 -169.3 L-40.8 -177.7 M-36.7 -169.3 L-46.2 -171.2 M-39.8 -167.0 L-43.2 -173.5 M-39.8 -167.0 L-48.1 -172.3 M-41.4 -167.9 L-46.2 -171.2 M-48.1 -172.3 L-55.1 -179.9 M-47.6 -176.0 L-55.2 -176.1 M-47.6 -176.0 L-53.0 -184.2 M-45.2 -180.2 L-55.1 -179.9 M-45.2 -180.2 L-50.1 -186.5 M-42.2 -182.5 L-53.0 -184.2 M-42.2 -182.5 L-48.1 -185.4 M-40.4 -181.4 L-50.1 -186.5 M-40.4 -181.4 L-48.2 -181.6 M-40.8 -177.7 L-48.1 -185.4 M-40.8 -177.7 L-50.3 -177.3 M-43.2 -173.5 L-48.2 -181.6 M-43.2 -173.5 L-53.2 -175.0 M-46.2 -171.2 L-50.3 -177.3 M-46.2 -171.2 L-55.2 -176.1 M-48.1 -172.3 L-53.2 -175.0 M-55.2 -176.1 L-62.9 -183.3 M-55.1 -179.9 L-62.7 -179.5 M-55.1 -179.9 L-61.1 -187.6 M-53.0 -184.2 L-62.9 -183.3 M-53.0 -184.2 L-58.3 -189.9 M-50.1 -186.5 L-61.1 -187.6 M-50.1 -186.5 L-56.2 -188.7 M-48.1 -185.4 L-58.3 -189.9 M-48.1 -185.4 L-56.0 -184.9 M-48.2 -181.6 L-56.2 -188.7 M-48.2 -181.6 L-57.8 -180.6 M-50.3 -177.3 L-56.0 -184.9 M-50.3 -177.3 L-60.6 -178.3 M-53.2 -175.0 L-57.8 -180.6 M-53.2 -175.0 L-62.7 -179.5 M-55.2 -176.1 L-60.6 -178.3 M-62.7 -179.5 L-71.1 -186.1 M-62.9 -183.3 L-70.6 -182.3 M-62.9 -183.3 L-69.5 -190.4 M-61.1 -187.6 L-71.1 -186.1 M-61.1 -187.6 L-66.8 -192.6 M-58.3 -189.9 L-69.5 -190.4 M-58.3 -189.9 L-64.7 -191.5 M-56.2 -188.7 L-66.8 -192.6 M-56.2 -188.7 L-64.2 -187.6 M-56.0 -184.9 L-64.7 -191.5 M-56.0 -184.9 L-65.8 -183.3 M-57.8 -180.6 L-64.2 -187.6 M-57.8 -180.6 L-68.5 -181.1 M-60.6 -178.3 L-65.8 -183.3 M-60.6 -178.3 L-70.6 -182.3 M-62.7 -179.5 L-68.5 -181.1" stroke-width="0.385" opacity=".7"/></g></svg>