<svg xmlns="http://www.w3.org/2000/svg" viewBox="0 0 220 130">
  <!-- An open hand, palm up, reaching in from the left: the "6 7" weighing gesture. Drawn for this app. -->
  <defs>
    <linearGradient id="skin" x1="0" y1="0" x2="0" y2="1">
      <stop offset="0" stop-color="#f4f4f4"/>
      <stop offset="1" stop-color="#b9b9b9"/>
    </linearGradient>
  </defs>
  <g stroke="#2b2b2b" stroke-width="3" stroke-linejoin="round" stroke-linecap="round" fill="url(#skin)">
    <path d="M-4 52 L40 46 L44 88 L-4 96 Z"/>
    <path d="M150 74 q22 -2 30 8 q4 8 -6 10 q-12 2 -26 -4 Z"/>
    <path d="M138 82 q20 4 24 18 q2 9 -8 9 q-12 -1 -22 -16 Z"/>
    <path d="M122 86 q16 8 16 22 q0 9 -9 8 q-11 -2 -16 -20 Z"/>
    <path d="M104 88 q12 9 11 21 q-1 8 -9 7 q-10 -2 -12 -20 Z"/>
    <path d="M36 50 C 40 34, 128 30, 160 44 C 182 54, 178 74, 156 80 C 120 92, 70 96, 44 90 C 30 86, 30 62, 36 50 Z"/>
    <path d="M50 52 q-12 -18 -4 -32 q7 -8 13 1 q6 12 4 29" />
    <path d="M60 62 q30 8 70 2" fill="none" stroke-width="2" opacity=".55"/>
    <path d="M70 76 q26 4 52 -2" fill="none" stroke-width="2" opacity=".45"/>
  </g>
</svg>
